<?xml version="1.0" encoding="UTF-8" standalone="no"?><svg xmlns="http://www.w3.org/2000/svg" xmlns:xlink="http://www.w3.org/1999/xlink" contentStyleType="text/css" height="926px" preserveAspectRatio="none" style="width:912px;height:926px;background:#FFFFFF;" version="1.1" viewBox="0 0 912 926" width="912px" zoomAndPan="magnify"><defs/><g><!--MD5=[3fd616f346a44cd59a91eb10b19e157c]
class User--><g id="elem_User"><rect codeLine="1" fill="#F1F1F1" height="162.0781" id="User" rx="2.5" ry="2.5" style="stroke:#181818;stroke-width:0.5;" width="144" x="493.5" y="7"/><ellipse cx="545.25" cy="23" fill="#ADD1B2" rx="11" ry="11" style="stroke:#181818;stroke-width:1.0;"/><path d="M548.2188,28.6406 Q547.6406,28.9375 547,29.0781 Q546.3594,29.2344 545.6563,29.2344 Q543.1563,29.2344 541.8281,27.5938 Q540.5156,25.9375 540.5156,22.8125 Q540.5156,19.6875 541.8281,18.0313 Q543.1563,16.375 545.6563,16.375 Q546.3594,16.375 547,16.5313 Q547.6563,16.6875 548.2188,16.9844 L548.2188,19.7031 Q547.5938,19.125 547,18.8594 Q546.4063,18.5781 545.7813,18.5781 Q544.4375,18.5781 543.75,19.6563 Q543.0625,20.7188 543.0625,22.8125 Q543.0625,24.9063 543.75,25.9844 Q544.4375,27.0469 545.7813,27.0469 Q546.4063,27.0469 547,26.7813 Q547.5938,26.5 548.2188,25.9219 L548.2188,28.6406 Z " fill="#000000"/><text fill="#000000" font-family="sans-serif" font-size="14" lengthAdjust="spacing" textLength="32" x="565.75" y="27.8467">User</text><line style="stroke:#181818;stroke-width:0.5;" x1="494.5" x2="636.5" y1="39" y2="39"/><ellipse cx="504.5" cy="52.6484" fill="none" rx="3" ry="3" style="stroke:#038048;stroke-width:1.0;"/><text fill="#000000" font-family="sans-serif" font-size="14" lengthAdjust="spacing" textLength="38" x="513.5" y="55.9951">id: int</text><ellipse cx="504.5" cy="68.9453" fill="none" rx="3" ry="3" style="stroke:#038048;stroke-width:1.0;"/><text fill="#000000" font-family="sans-serif" font-size="14" lengthAdjust="spacing" textLength="118" x="513.5" y="72.292">username: string</text><ellipse cx="504.5" cy="85.2422" fill="none" rx="3" ry="3" style="stroke:#038048;stroke-width:1.0;"/><text fill="#000000" font-family="sans-serif" font-size="14" lengthAdjust="spacing" textLength="84" x="513.5" y="88.5889">email: string</text><ellipse cx="504.5" cy="101.5391" fill="none" rx="3" ry="3" style="stroke:#038048;stroke-width:1.0;"/><text fill="#000000" font-family="sans-serif" font-size="14" lengthAdjust="spacing" textLength="115" x="513.5" y="104.8857">password: string</text><ellipse cx="504.5" cy="117.8359" fill="none" rx="3" ry="3" style="stroke:#038048;stroke-width:1.0;"/><text fill="#000000" font-family="sans-serif" font-size="14" lengthAdjust="spacing" textLength="66" x="513.5" y="121.1826">role: Role</text><ellipse cx="504.5" cy="134.1328" fill="none" rx="3" ry="3" style="stroke:#038048;stroke-width:1.0;"/><text fill="#000000" font-family="sans-serif" font-size="14" lengthAdjust="spacing" textLength="112" x="513.5" y="137.4795">created_at: time</text><ellipse cx="504.5" cy="150.4297" fill="none" rx="3" ry="3" style="stroke:#038048;stroke-width:1.0;"/><text fill="#000000" font-family="sans-serif" font-size="14" lengthAdjust="spacing" textLength="117" x="513.5" y="153.7764">updated_at: time</text><line style="stroke:#181818;stroke-width:0.5;" x1="494.5" x2="636.5" y1="161.0781" y2="161.0781"/></g><!--MD5=[a3638c1e5b65d287ecad7f06f5c0f212]
class Role--><g id="elem_Role"><rect codeLine="11" fill="#F1F1F1" height="80.5938" id="Role" rx="2.5" ry="2.5" style="stroke:#181818;stroke-width:0.5;" width="113" x="7" y="278.5"/><ellipse cx="44.5" cy="294.5" fill="#ADD1B2" rx="11" ry="11" style="stroke:#181818;stroke-width:1.0;"/><path d="M47.4688,300.1406 Q46.8906,300.4375 46.25,300.5781 Q45.6094,300.7344 44.9063,300.7344 Q42.4063,300.7344 41.0781,299.0938 Q39.7656,297.4375 39.7656,294.3125 Q39.7656,291.1875 41.0781,289.5313 Q42.4063,287.875 44.9063,287.875 Q45.6094,287.875 46.25,288.0313 Q46.9063,288.1875 47.4688,288.4844 L47.4688,291.2031 Q46.8438,290.625 46.25,290.3594 Q45.6563,290.0781 45.0313,290.0781 Q43.6875,290.0781 43,291.1563 Q42.3125,292.2188 42.3125,294.3125 Q42.3125,296.4063 43,297.4844 Q43.6875,298.5469 45.0313,298.5469 Q45.6563,298.5469 46.25,298.2813 Q46.8438,298 47.4688,297.4219 L47.4688,300.1406 Z " fill="#000000"/><text fill="#000000" font-family="sans-serif" font-size="14" lengthAdjust="spacing" textLength="31" x="63.5" y="299.3467">Role</text><line style="stroke:#181818;stroke-width:0.5;" x1="8" x2="119" y1="310.5" y2="310.5"/><ellipse cx="18" cy="324.1484" fill="none" rx="3" ry="3" style="stroke:#038048;stroke-width:1.0;"/><text fill="#000000" font-family="sans-serif" font-size="14" lengthAdjust="spacing" textLength="38" x="27" y="327.4951">id: int</text><ellipse cx="18" cy="340.4453" fill="none" rx="3" ry="3" style="stroke:#038048;stroke-width:1.0;"/><text fill="#000000" font-family="sans-serif" font-size="14" lengthAdjust="spacing" textLength="87" x="27" y="343.792">name: string</text><line style="stroke:#181818;stroke-width:0.5;" x1="8" x2="119" y1="351.0938" y2="351.0938"/></g><!--MD5=[dfb0845b8492ffe07b1ce50e003034d7]
class Team--><g id="elem_Team"><rect codeLine="16" fill="#F1F1F1" height="129.4844" id="Team" rx="2.5" ry="2.5" style="stroke:#181818;stroke-width:0.5;" width="143" x="227" y="254.5"/><ellipse cx="274.75" cy="270.5" fill="#ADD1B2" rx="11" ry="11" style="stroke:#181818;stroke-width:1.0;"/><path d="M277.7188,276.1406 Q277.1406,276.4375 276.5,276.5781 Q275.8594,276.7344 275.1563,276.7344 Q272.6563,276.7344 271.3281,275.0938 Q270.0156,273.4375 270.0156,270.3125 Q270.0156,267.1875 271.3281,265.5313 Q272.6563,263.875 275.1563,263.875 Q275.8594,263.875 276.5,264.0313 Q277.1563,264.1875 277.7188,264.4844 L277.7188,267.2031 Q277.0938,266.625 276.5,266.3594 Q275.9063,266.0781 275.2813,266.0781 Q273.9375,266.0781 273.25,267.1563 Q272.5625,268.2188 272.5625,270.3125 Q272.5625,272.4063 273.25,273.4844 Q273.9375,274.5469 275.2813,274.5469 Q275.9063,274.5469 276.5,274.2813 Q277.0938,274 277.7188,273.4219 L277.7188,276.1406 Z " fill="#000000"/><text fill="#000000" font-family="sans-serif" font-size="14" lengthAdjust="spacing" textLength="39" x="295.25" y="275.3467">Team</text><line style="stroke:#181818;stroke-width:0.5;" x1="228" x2="369" y1="286.5" y2="286.5"/><ellipse cx="238" cy="300.1484" fill="none" rx="3" ry="3" style="stroke:#038048;stroke-width:1.0;"/><text fill="#000000" font-family="sans-serif" font-size="14" lengthAdjust="spacing" textLength="38" x="247" y="303.4951">id: int</text><ellipse cx="238" cy="316.4453" fill="none" rx="3" ry="3" style="stroke:#038048;stroke-width:1.0;"/><text fill="#000000" font-family="sans-serif" font-size="14" lengthAdjust="spacing" textLength="87" x="247" y="319.792">name: string</text><ellipse cx="238" cy="332.7422" fill="none" rx="3" ry="3" style="stroke:#038048;stroke-width:1.0;"/><text fill="#000000" font-family="sans-serif" font-size="14" lengthAdjust="spacing" textLength="83" x="247" y="336.0889">coach: User</text><ellipse cx="238" cy="349.0391" fill="none" rx="3" ry="3" style="stroke:#038048;stroke-width:1.0;"/><text fill="#000000" font-family="sans-serif" font-size="14" lengthAdjust="spacing" textLength="112" x="247" y="352.3857">created_at: time</text><ellipse cx="238" cy="365.3359" fill="none" rx="3" ry="3" style="stroke:#038048;stroke-width:1.0;"/><text fill="#000000" font-family="sans-serif" font-size="14" lengthAdjust="spacing" textLength="117" x="247" y="368.6826">updated_at: time</text><line style="stroke:#181818;stroke-width:0.5;" x1="228" x2="369" y1="375.9844" y2="375.9844"/></g><!--MD5=[2cb47ba637a0d19583e6199456f6ad0b]
class Player--><g id="elem_Player"><rect codeLine="24" fill="#F1F1F1" height="210.9688" id="Player" rx="2.5" ry="2.5" style="stroke:#181818;stroke-width:0.5;" width="154" x="102.5" y="469"/><ellipse cx="154.75" cy="485" fill="#ADD1B2" rx="11" ry="11" style="stroke:#181818;stroke-width:1.0;"/><path d="M157.7188,490.6406 Q157.1406,490.9375 156.5,491.0781 Q155.8594,491.2344 155.1563,491.2344 Q152.6563,491.2344 151.3281,489.5938 Q150.0156,487.9375 150.0156,484.8125 Q150.0156,481.6875 151.3281,480.0313 Q152.6563,478.375 155.1563,478.375 Q155.8594,478.375 156.5,478.5313 Q157.1563,478.6875 157.7188,478.9844 L157.7188,481.7031 Q157.0938,481.125 156.5,480.8594 Q155.9063,480.5781 155.2813,480.5781 Q153.9375,480.5781 153.25,481.6563 Q152.5625,482.7188 152.5625,484.8125 Q152.5625,486.9063 153.25,487.9844 Q153.9375,489.0469 155.2813,489.0469 Q155.9063,489.0469 156.5,488.7813 Q157.0938,488.5 157.7188,487.9219 L157.7188,490.6406 Z " fill="#000000"/><text fill="#000000" font-family="sans-serif" font-size="14" lengthAdjust="spacing" textLength="41" x="175.25" y="489.8467">Player</text><line style="stroke:#181818;stroke-width:0.5;" x1="103.5" x2="255.5" y1="501" y2="501"/><ellipse cx="113.5" cy="514.6484" fill="none" rx="3" ry="3" style="stroke:#038048;stroke-width:1.0;"/><text fill="#000000" font-family="sans-serif" font-size="14" lengthAdjust="spacing" textLength="38" x="122.5" y="517.9951">id: int</text><ellipse cx="113.5" cy="530.9453" fill="none" rx="3" ry="3" style="stroke:#038048;stroke-width:1.0;"/><text fill="#000000" font-family="sans-serif" font-size="14" lengthAdjust="spacing" textLength="72" x="122.5" y="534.292">user: User</text><ellipse cx="113.5" cy="547.2422" fill="none" rx="3" ry="3" style="stroke:#038048;stroke-width:1.0;"/><text fill="#000000" font-family="sans-serif" font-size="14" lengthAdjust="spacing" textLength="83" x="122.5" y="550.5889">team: Team</text><ellipse cx="113.5" cy="563.5391" fill="none" rx="3" ry="3" style="stroke:#038048;stroke-width:1.0;"/><text fill="#000000" font-family="sans-serif" font-size="14" lengthAdjust="spacing" textLength="103" x="122.5" y="566.8857">position: string</text><ellipse cx="113.5" cy="579.8359" fill="none" rx="3" ry="3" style="stroke:#038048;stroke-width:1.0;"/><text fill="#000000" font-family="sans-serif" font-size="14" lengthAdjust="spacing" textLength="128" x="122.5" y="583.1826">jersey_number: int</text><ellipse cx="113.5" cy="596.1328" fill="none" rx="3" ry="3" style="stroke:#038048;stroke-width:1.0;"/><text fill="#000000" font-family="sans-serif" font-size="14" lengthAdjust="spacing" textLength="69" x="122.5" y="599.4795">points: int</text><ellipse cx="113.5" cy="612.4297" fill="none" rx="3" ry="3" style="stroke:#038048;stroke-width:1.0;"/><text fill="#000000" font-family="sans-serif" font-size="14" lengthAdjust="spacing" textLength="74" x="122.5" y="615.7764">assists: int</text><ellipse cx="113.5" cy="628.7266" fill="none" rx="3" ry="3" style="stroke:#038048;stroke-width:1.0;"/><text fill="#000000" font-family="sans-serif" font-size="14" lengthAdjust="spacing" textLength="71" x="122.5" y="632.0732">blocks: int</text><ellipse cx="113.5" cy="645.0234" fill="none" rx="3" ry="3" style="stroke:#038048;stroke-width:1.0;"/><text fill="#000000" font-family="sans-serif" font-size="14" lengthAdjust="spacing" textLength="59" x="122.5" y="648.3701">aces: int</text><ellipse cx="113.5" cy="661.3203" fill="none" rx="3" ry="3" style="stroke:#038048;stroke-width:1.0;"/><text fill="#000000" font-family="sans-serif" font-size="14" lengthAdjust="spacing" textLength="112" x="122.5" y="664.667">created_at: time</text><line style="stroke:#181818;stroke-width:0.5;" x1="103.5" x2="255.5" y1="671.9688" y2="671.9688"/></g><!--MD5=[a4b4d324fd2684dbb9bd6a0eaf7882b2]
class Tournament--><g id="elem_Tournament"><rect codeLine="37" fill="#F1F1F1" height="145.7813" id="Tournament" rx="2.5" ry="2.5" style="stroke:#181818;stroke-width:0.5;" width="138" x="405.5" y="246"/><ellipse cx="429.95" cy="262" fill="#ADD1B2" rx="11" ry="11" style="stroke:#181818;stroke-width:1.0;"/><path d="M432.9188,267.6406 Q432.3406,267.9375 431.7,268.0781 Q431.0594,268.2344 430.3563,268.2344 Q427.8563,268.2344 426.5281,266.5938 Q425.2156,264.9375 425.2156,261.8125 Q425.2156,258.6875 426.5281,257.0313 Q427.8563,255.375 430.3563,255.375 Q431.0594,255.375 431.7,255.5313 Q432.3563,255.6875 432.9188,255.9844 L432.9188,258.7031 Q432.2938,258.125 431.7,257.8594 Q431.1063,257.5781 430.4813,257.5781 Q429.1375,257.5781 428.45,258.6563 Q427.7625,259.7188 427.7625,261.8125 Q427.7625,263.9063 428.45,264.9844 Q429.1375,266.0469 430.4813,266.0469 Q431.1063,266.0469 431.7,265.7813 Q432.2938,265.5 432.9188,264.9219 L432.9188,267.6406 Z " fill="#000000"/><text fill="#000000" font-family="sans-serif" font-size="14" lengthAdjust="spacing" textLength="85" x="446.05" y="266.8467">Tournament</text><line style="stroke:#181818;stroke-width:0.5;" x1="406.5" x2="542.5" y1="278" y2="278"/><ellipse cx="416.5" cy="291.6484" fill="none" rx="3" ry="3" style="stroke:#038048;stroke-width:1.0;"/><text fill="#000000" font-family="sans-serif" font-size="14" lengthAdjust="spacing" textLength="38" x="425.5" y="294.9951">id: int</text><ellipse cx="416.5" cy="307.9453" fill="none" rx="3" ry="3" style="stroke:#038048;stroke-width:1.0;"/><text fill="#000000" font-family="sans-serif" font-size="14" lengthAdjust="spacing" textLength="87" x="425.5" y="311.292">name: string</text><ellipse cx="416.5" cy="324.2422" fill="none" rx="3" ry="3" style="stroke:#038048;stroke-width:1.0;"/><text fill="#000000" font-family="sans-serif" font-size="14" lengthAdjust="spacing" textLength="108" x="425.5" y="327.5889">category: string</text><ellipse cx="416.5" cy="340.5391" fill="none" rx="3" ry="3" style="stroke:#038048;stroke-width:1.0;"/><text fill="#000000" font-family="sans-serif" font-size="14" lengthAdjust="spacing" textLength="109" x="425.5" y="343.8857">start_date: date</text><ellipse cx="416.5" cy="356.8359" fill="none" rx="3" ry="3" style="stroke:#038048;stroke-width:1.0;"/><text fill="#000000" font-family="sans-serif" font-size="14" lengthAdjust="spacing" textLength="105" x="425.5" y="360.1826">end_date: date</text><ellipse cx="416.5" cy="373.1328" fill="none" rx="3" ry="3" style="stroke:#038048;stroke-width:1.0;"/><text fill="#000000" font-family="sans-serif" font-size="14" lengthAdjust="spacing" textLength="112" x="425.5" y="376.4795">created_at: time</text><line style="stroke:#181818;stroke-width:0.5;" x1="406.5" x2="542.5" y1="383.7813" y2="383.7813"/></g><!--MD5=[5f0899136ed8f523b18ed05779c24112]
class Match--><g id="elem_Match"><rect codeLine="46" fill="#F1F1F1" height="162.0781" id="Match" rx="2.5" ry="2.5" style="stroke:#181818;stroke-width:0.5;" width="201" x="292" y="493.5"/><ellipse cx="367.25" cy="509.5" fill="#ADD1B2" rx="11" ry="11" style="stroke:#181818;stroke-width:1.0;"/><path d="M370.2188,515.1406 Q369.6406,515.4375 369,515.5781 Q368.3594,515.7344 367.6563,515.7344 Q365.1563,515.7344 363.8281,514.0938 Q362.5156,512.4375 362.5156,509.3125 Q362.5156,506.1875 363.8281,504.5313 Q365.1563,502.875 367.6563,502.875 Q368.3594,502.875 369,503.0313 Q369.6563,503.1875 370.2188,503.4844 L370.2188,506.2031 Q369.5938,505.625 369,505.3594 Q368.4063,505.0781 367.7813,505.0781 Q366.4375,505.0781 365.75,506.1563 Q365.0625,507.2188 365.0625,509.3125 Q365.0625,511.4063 365.75,512.4844 Q366.4375,513.5469 367.7813,513.5469 Q368.4063,513.5469 369,513.2813 Q369.5938,513 370.2188,512.4219 L370.2188,515.1406 Z " fill="#000000"/><text fill="#000000" font-family="sans-serif" font-size="14" lengthAdjust="spacing" textLength="42" x="387.75" y="514.3467">Match</text><line style="stroke:#181818;stroke-width:0.5;" x1="293" x2="492" y1="525.5" y2="525.5"/><ellipse cx="303" cy="539.1484" fill="none" rx="3" ry="3" style="stroke:#038048;stroke-width:1.0;"/><text fill="#000000" font-family="sans-serif" font-size="14" lengthAdjust="spacing" textLength="38" x="312" y="542.4951">id: int</text><ellipse cx="303" cy="555.4453" fill="none" rx="3" ry="3" style="stroke:#038048;stroke-width:1.0;"/><text fill="#000000" font-family="sans-serif" font-size="14" lengthAdjust="spacing" textLength="130" x="312" y="558.792">home_team: Team</text><ellipse cx="303" cy="571.7422" fill="none" rx="3" ry="3" style="stroke:#038048;stroke-width:1.0;"/><text fill="#000000" font-family="sans-serif" font-size="14" lengthAdjust="spacing" textLength="124" x="312" y="575.0889">away_team: Team</text><ellipse cx="303" cy="588.0391" fill="none" rx="3" ry="3" style="stroke:#038048;stroke-width:1.0;"/><text fill="#000000" font-family="sans-serif" font-size="14" lengthAdjust="spacing" textLength="175" x="312" y="591.3857">tournament: Tournament</text><ellipse cx="303" cy="604.3359" fill="none" rx="3" ry="3" style="stroke:#038048;stroke-width:1.0;"/><text fill="#000000" font-family="sans-serif" font-size="14" lengthAdjust="spacing" textLength="101" x="312" y="607.6826">date: datetime</text><ellipse cx="303" cy="620.6328" fill="none" rx="3" ry="3" style="stroke:#038048;stroke-width:1.0;"/><text fill="#000000" font-family="sans-serif" font-size="14" lengthAdjust="spacing" textLength="87" x="312" y="623.9795">result: string</text><ellipse cx="303" cy="636.9297" fill="none" rx="3" ry="3" style="stroke:#038048;stroke-width:1.0;"/><text fill="#000000" font-family="sans-serif" font-size="14" lengthAdjust="spacing" textLength="112" x="312" y="640.2764">created_at: time</text><line style="stroke:#181818;stroke-width:0.5;" x1="293" x2="492" y1="647.5781" y2="647.5781"/></g><!--MD5=[97cf1a1ebfbea5b45ef064f4e6d9b694]
class PlayerMatch--><g id="elem_PlayerMatch"><rect codeLine="56" fill="#F1F1F1" height="145.7813" id="PlayerMatch" rx="2.5" ry="2.5" style="stroke:#181818;stroke-width:0.5;" width="120" x="314.5" y="757"/><ellipse cx="331.75" cy="773" fill="#ADD1B2" rx="11" ry="11" style="stroke:#181818;stroke-width:1.0;"/><path d="M334.7188,778.6406 Q334.1406,778.9375 333.5,779.0781 Q332.8594,779.2344 332.1563,779.2344 Q329.6563,779.2344 328.3281,777.5938 Q327.0156,775.9375 327.0156,772.8125 Q327.0156,769.6875 328.3281,768.0313 Q329.6563,766.375 332.1563,766.375 Q332.8594,766.375 333.5,766.5313 Q334.1563,766.6875 334.7188,766.9844 L334.7188,769.7031 Q334.0938,769.125 333.5,768.8594 Q332.9063,768.5781 332.2813,768.5781 Q330.9375,768.5781 330.25,769.6563 Q329.5625,770.7188 329.5625,772.8125 Q329.5625,774.9063 330.25,775.9844 Q330.9375,777.0469 332.2813,777.0469 Q332.9063,777.0469 333.5,776.7813 Q334.0938,776.5 334.7188,775.9219 L334.7188,778.6406 Z " fill="#000000"/><text fill="#000000" font-family="sans-serif" font-size="14" lengthAdjust="spacing" textLength="83" x="346.25" y="777.8467">PlayerMatch</text><line style="stroke:#181818;stroke-width:0.5;" x1="315.5" x2="433.5" y1="789" y2="789"/><ellipse cx="325.5" cy="802.6484" fill="none" rx="3" ry="3" style="stroke:#038048;stroke-width:1.0;"/><text fill="#000000" font-family="sans-serif" font-size="14" lengthAdjust="spacing" textLength="91" x="334.5" y="805.9951">player: Player</text><ellipse cx="325.5" cy="818.9453" fill="none" rx="3" ry="3" style="stroke:#038048;stroke-width:1.0;"/><text fill="#000000" font-family="sans-serif" font-size="14" lengthAdjust="spacing" textLength="94" x="334.5" y="822.292">match: Match</text><ellipse cx="325.5" cy="835.2422" fill="none" rx="3" ry="3" style="stroke:#038048;stroke-width:1.0;"/><text fill="#000000" font-family="sans-serif" font-size="14" lengthAdjust="spacing" textLength="69" x="334.5" y="838.5889">points: int</text><ellipse cx="325.5" cy="851.5391" fill="none" rx="3" ry="3" style="stroke:#038048;stroke-width:1.0;"/><text fill="#000000" font-family="sans-serif" font-size="14" lengthAdjust="spacing" textLength="74" x="334.5" y="854.8857">assists: int</text><ellipse cx="325.5" cy="867.8359" fill="none" rx="3" ry="3" style="stroke:#038048;stroke-width:1.0;"/><text fill="#000000" font-family="sans-serif" font-size="14" lengthAdjust="spacing" textLength="71" x="334.5" y="871.1826">blocks: int</text><ellipse cx="325.5" cy="884.1328" fill="none" rx="3" ry="3" style="stroke:#038048;stroke-width:1.0;"/><text fill="#000000" font-family="sans-serif" font-size="14" lengthAdjust="spacing" textLength="59" x="334.5" y="887.4795">aces: int</text><line style="stroke:#181818;stroke-width:0.5;" x1="315.5" x2="433.5" y1="894.7813" y2="894.7813"/></g><!--MD5=[f722b562e8a02532a8493b65cd362b58]
class PlayerStatistics--><g id="elem_PlayerStatistics"><rect codeLine="65" fill="#F1F1F1" height="178.375" id="PlayerStatistics" rx="2.5" ry="2.5" style="stroke:#181818;stroke-width:0.5;" width="164" x="97.5" y="741"/><ellipse cx="125.55" cy="757" fill="#ADD1B2" rx="11" ry="11" style="stroke:#181818;stroke-width:1.0;"/><path d="M128.5188,762.6406 Q127.9406,762.9375 127.3,763.0781 Q126.6594,763.2344 125.9563,763.2344 Q123.4563,763.2344 122.1281,761.5938 Q120.8156,759.9375 120.8156,756.8125 Q120.8156,753.6875 122.1281,752.0313 Q123.4563,750.375 125.9563,750.375 Q126.6594,750.375 127.3,750.5313 Q127.9563,750.6875 128.5188,750.9844 L128.5188,753.7031 Q127.8938,753.125 127.3,752.8594 Q126.7063,752.5781 126.0813,752.5781 Q124.7375,752.5781 124.05,753.6563 Q123.3625,754.7188 123.3625,756.8125 Q123.3625,758.9063 124.05,759.9844 Q124.7375,761.0469 126.0813,761.0469 Q126.7063,761.0469 127.3,760.7813 Q127.8938,760.5 128.5188,759.9219 L128.5188,762.6406 Z " fill="#000000"/><text fill="#000000" font-family="sans-serif" font-size="14" lengthAdjust="spacing" textLength="103" x="142.45" y="761.8467">PlayerStatistics</text><line style="stroke:#181818;stroke-width:0.5;" x1="98.5" x2="260.5" y1="773" y2="773"/><ellipse cx="108.5" cy="786.6484" fill="none" rx="3" ry="3" style="stroke:#038048;stroke-width:1.0;"/><text fill="#000000" font-family="sans-serif" font-size="14" lengthAdjust="spacing" textLength="38" x="117.5" y="789.9951">id: int</text><ellipse cx="108.5" cy="802.9453" fill="none" rx="3" ry="3" style="stroke:#038048;stroke-width:1.0;"/><text fill="#000000" font-family="sans-serif" font-size="14" lengthAdjust="spacing" textLength="91" x="117.5" y="806.292">player: Player</text><ellipse cx="108.5" cy="819.2422" fill="none" rx="3" ry="3" style="stroke:#038048;stroke-width:1.0;"/><text fill="#000000" font-family="sans-serif" font-size="14" lengthAdjust="spacing" textLength="138" x="117.5" y="822.5889">matches_played: int</text><ellipse cx="108.5" cy="835.5391" fill="none" rx="3" ry="3" style="stroke:#038048;stroke-width:1.0;"/><text fill="#000000" font-family="sans-serif" font-size="14" lengthAdjust="spacing" textLength="124" x="117.5" y="838.8857">points_scored: int</text><ellipse cx="108.5" cy="851.8359" fill="none" rx="3" ry="3" style="stroke:#038048;stroke-width:1.0;"/><text fill="#000000" font-family="sans-serif" font-size="14" lengthAdjust="spacing" textLength="74" x="117.5" y="855.1826">assists: int</text><ellipse cx="108.5" cy="868.1328" fill="none" rx="3" ry="3" style="stroke:#038048;stroke-width:1.0;"/><text fill="#000000" font-family="sans-serif" font-size="14" lengthAdjust="spacing" textLength="71" x="117.5" y="871.4795">blocks: int</text><ellipse cx="108.5" cy="884.4297" fill="none" rx="3" ry="3" style="stroke:#038048;stroke-width:1.0;"/><text fill="#000000" font-family="sans-serif" font-size="14" lengthAdjust="spacing" textLength="59" x="117.5" y="887.7764">aces: int</text><ellipse cx="108.5" cy="900.7266" fill="none" rx="3" ry="3" style="stroke:#038048;stroke-width:1.0;"/><text fill="#000000" font-family="sans-serif" font-size="14" lengthAdjust="spacing" textLength="112" x="117.5" y="904.0732">created_at: time</text><line style="stroke:#181818;stroke-width:0.5;" x1="98.5" x2="260.5" y1="911.375" y2="911.375"/></g><!--MD5=[7b1fe61636788f4cc8d26c03effb0cc2]
class ActionLog--><g id="elem_ActionLog"><rect codeLine="76" fill="#F1F1F1" height="113.1875" id="ActionLog" rx="2.5" ry="2.5" style="stroke:#181818;stroke-width:0.5;" width="153" x="579" y="262.5"/><ellipse cx="617.85" cy="278.5" fill="#ADD1B2" rx="11" ry="11" style="stroke:#181818;stroke-width:1.0;"/><path d="M620.8188,284.1406 Q620.2406,284.4375 619.6,284.5781 Q618.9594,284.7344 618.2563,284.7344 Q615.7563,284.7344 614.4281,283.0938 Q613.1156,281.4375 613.1156,278.3125 Q613.1156,275.1875 614.4281,273.5313 Q615.7563,271.875 618.2563,271.875 Q618.9594,271.875 619.6,272.0313 Q620.2563,272.1875 620.8188,272.4844 L620.8188,275.2031 Q620.1938,274.625 619.6,274.3594 Q619.0063,274.0781 618.3813,274.0781 Q617.0375,274.0781 616.35,275.1563 Q615.6625,276.2188 615.6625,278.3125 Q615.6625,280.4063 616.35,281.4844 Q617.0375,282.5469 618.3813,282.5469 Q619.0063,282.5469 619.6,282.2813 Q620.1938,282 620.8188,281.4219 L620.8188,284.1406 Z " fill="#000000"/><text fill="#000000" font-family="sans-serif" font-size="14" lengthAdjust="spacing" textLength="68" x="637.15" y="283.3467">ActionLog</text><line style="stroke:#181818;stroke-width:0.5;" x1="580" x2="731" y1="294.5" y2="294.5"/><ellipse cx="590" cy="308.1484" fill="none" rx="3" ry="3" style="stroke:#038048;stroke-width:1.0;"/><text fill="#000000" font-family="sans-serif" font-size="14" lengthAdjust="spacing" textLength="38" x="599" y="311.4951">id: int</text><ellipse cx="590" cy="324.4453" fill="none" rx="3" ry="3" style="stroke:#038048;stroke-width:1.0;"/><text fill="#000000" font-family="sans-serif" font-size="14" lengthAdjust="spacing" textLength="72" x="599" y="327.792">user: User</text><ellipse cx="590" cy="340.7422" fill="none" rx="3" ry="3" style="stroke:#038048;stroke-width:1.0;"/><text fill="#000000" font-family="sans-serif" font-size="14" lengthAdjust="spacing" textLength="127" x="599" y="344.0889">action_type: string</text><ellipse cx="590" cy="357.0391" fill="none" rx="3" ry="3" style="stroke:#038048;stroke-width:1.0;"/><text fill="#000000" font-family="sans-serif" font-size="14" lengthAdjust="spacing" textLength="112" x="599" y="360.3857">created_at: time</text><line style="stroke:#181818;stroke-width:0.5;" x1="580" x2="731" y1="367.6875" y2="367.6875"/></g><!--MD5=[bea5b0d46523efab5ea1c1d339f396f0]
class Message--><g id="elem_Message"><rect codeLine="83" fill="#F1F1F1" height="129.4844" id="Message" rx="2.5" ry="2.5" style="stroke:#181818;stroke-width:0.5;" width="138" x="767.5" y="254.5"/><ellipse cx="801.85" cy="270.5" fill="#ADD1B2" rx="11" ry="11" style="stroke:#181818;stroke-width:1.0;"/><path d="M804.8188,276.1406 Q804.2406,276.4375 803.6,276.5781 Q802.9594,276.7344 802.2563,276.7344 Q799.7563,276.7344 798.4281,275.0938 Q797.1156,273.4375 797.1156,270.3125 Q797.1156,267.1875 798.4281,265.5313 Q799.7563,263.875 802.2563,263.875 Q802.9594,263.875 803.6,264.0313 Q804.2563,264.1875 804.8188,264.4844 L804.8188,267.2031 Q804.1938,266.625 803.6,266.3594 Q803.0063,266.0781 802.3813,266.0781 Q801.0375,266.0781 800.35,267.1563 Q799.6625,268.2188 799.6625,270.3125 Q799.6625,272.4063 800.35,273.4844 Q801.0375,274.5469 802.3813,274.5469 Q803.0063,274.5469 803.6,274.2813 Q804.1938,274 804.8188,273.4219 L804.8188,276.1406 Z " fill="#000000"/><text fill="#000000" font-family="sans-serif" font-size="14" lengthAdjust="spacing" textLength="63" x="820.15" y="275.3467">Message</text><line style="stroke:#181818;stroke-width:0.5;" x1="768.5" x2="904.5" y1="286.5" y2="286.5"/><ellipse cx="778.5" cy="300.1484" fill="none" rx="3" ry="3" style="stroke:#038048;stroke-width:1.0;"/><text fill="#000000" font-family="sans-serif" font-size="14" lengthAdjust="spacing" textLength="38" x="787.5" y="303.4951">id: int</text><ellipse cx="778.5" cy="316.4453" fill="none" rx="3" ry="3" style="stroke:#038048;stroke-width:1.0;"/><text fill="#000000" font-family="sans-serif" font-size="14" lengthAdjust="spacing" textLength="90" x="787.5" y="319.792">sender: User</text><ellipse cx="778.5" cy="332.7422" fill="none" rx="3" ry="3" style="stroke:#038048;stroke-width:1.0;"/><text fill="#000000" font-family="sans-serif" font-size="14" lengthAdjust="spacing" textLength="96" x="787.5" y="336.0889">receiver: User</text><ellipse cx="778.5" cy="349.0391" fill="none" rx="3" ry="3" style="stroke:#038048;stroke-width:1.0;"/><text fill="#000000" font-family="sans-serif" font-size="14" lengthAdjust="spacing" textLength="102" x="787.5" y="352.3857">content: string</text><ellipse cx="778.5" cy="365.3359" fill="none" rx="3" ry="3" style="stroke:#038048;stroke-width:1.0;"/><text fill="#000000" font-family="sans-serif" font-size="14" lengthAdjust="spacing" textLength="112" x="787.5" y="368.6826">created_at: time</text><line style="stroke:#181818;stroke-width:0.5;" x1="768.5" x2="904.5" y1="375.9844" y2="375.9844"/></g><!--MD5=[70c37dc9bfbc8656942103c36f1181e4]
link User to Role--><g id="link_User_Role"><path codeLine="91" d="M493.5,93.06 C404.89,101.19 253.22,125.62 147.5,199 C120.41,217.8 99.13,248.32 84.76,273.74 " fill="none" id="User-to-Role" style="stroke:#181818;stroke-width:1.0;"/><polygon fill="#181818" points="82.16,278.43,90.0274,272.5052,84.5882,274.0592,83.0342,268.62,82.16,278.43" style="stroke:#181818;stroke-width:1.0;"/><text fill="#000000" font-family="sans-serif" font-size="13" lengthAdjust="spacing" textLength="8" x="477.6625" y="89.8781">1</text><text fill="#000000" font-family="sans-serif" font-size="13" lengthAdjust="spacing" textLength="24" x="59.2631" y="267.5799">0..1</text></g><!--MD5=[9a733f9a77fef04327aa855b38589542]
link User to ActionLog--><g id="link_User_ActionLog"><path codeLine="92" d="M596.98,169.09 C608.43,198.23 621.17,230.65 631.83,257.78 " fill="none" id="User-to-ActionLog" style="stroke:#181818;stroke-width:1.0;"/><polygon fill="#181818" points="633.66,262.43,634.094,252.5907,631.8326,257.7759,626.6474,255.5145,633.66,262.43" style="stroke:#181818;stroke-width:1.0;"/><text fill="#000000" font-family="sans-serif" font-size="13" lengthAdjust="spacing" textLength="8" x="591.4274" y="189.0494">1</text><text fill="#000000" font-family="sans-serif" font-size="13" lengthAdjust="spacing" textLength="23" x="606.3883" y="251.2844">0..*</text></g><!--MD5=[e8a44440e7d883fedaa906df2c0e3d75]
link User to Message--><g id="link_User_Message"><path codeLine="93" d="M637.77,150.07 C676.5,182.79 724.11,223.03 763.02,255.91 " fill="none" id="User-to-Message" style="stroke:#181818;stroke-width:1.0;"/><polygon fill="#181818" points="767.24,259.47,762.9548,250.6023,763.4236,256.2396,757.7862,256.7085,767.24,259.47" style="stroke:#181818;stroke-width:1.0;"/><text fill="#000000" font-family="sans-serif" font-size="13" lengthAdjust="spacing" textLength="44" x="710.5" y="212.0669">sender</text><text fill="#000000" font-family="sans-serif" font-size="13" lengthAdjust="spacing" textLength="8" x="645.6353" y="152.7672">1</text><text fill="#000000" font-family="sans-serif" font-size="13" lengthAdjust="spacing" textLength="23" x="736.5426" y="250.1313">0..*</text></g><!--MD5=[e8a44440e7d883fedaa906df2c0e3d75]
link User to Message--><g id="link_User_Message"><path codeLine="94" d="M637.71,118.11 C678.04,136.9 727.29,164.32 763.5,199 C778.67,213.53 791.93,231.86 802.84,249.75 " fill="none" id="User-to-Message-1" style="stroke:#181818;stroke-width:1.0;"/><polygon fill="#181818" points="805.57,254.28,804.3456,244.5075,802.987,249.9988,797.4957,248.6403,805.57,254.28" style="stroke:#181818;stroke-width:1.0;"/><text fill="#000000" font-family="sans-serif" font-size="13" lengthAdjust="spacing" textLength="51" x="779.5" y="212.0669">receiver</text><text fill="#000000" font-family="sans-serif" font-size="13" lengthAdjust="spacing" textLength="8" x="645.5692" y="117.5114">1</text><text fill="#000000" font-family="sans-serif" font-size="13" lengthAdjust="spacing" textLength="23" x="777.9292" y="243.4286">0..*</text></g><!--MD5=[a6d2a5af26f22c316b3c030e8bd9b8f9]
link User to Player--><g id="link_User_Player"><path codeLine="95" d="M493.19,98.96 C409.94,114.58 276.14,153.32 209.5,246 C164.83,308.12 158.71,394.95 163.01,463.59 " fill="none" id="User-to-Player" style="stroke:#181818;stroke-width:1.0;"/><polygon fill="#181818" points="163.37,468.92,166.7431,459.6668,163.027,463.9318,158.762,460.2156,163.37,468.92" style="stroke:#181818;stroke-width:1.0;"/><text fill="#000000" font-family="sans-serif" font-size="13" lengthAdjust="spacing" textLength="8" x="477.3205" y="112.9334">1</text><text fill="#000000" font-family="sans-serif" font-size="13" lengthAdjust="spacing" textLength="24" x="137.3921" y="458.0417">0..1</text></g><!--MD5=[3c85ed1c74d2fd8e0488dff9cf058b2b]
link User to Team--><g id="link_User_Team"><path codeLine="96" d="M493.25,150.97 C456.44,182.54 411.71,220.91 374.4,252.91 " fill="none" id="User-to-Team" style="stroke:#181818;stroke-width:1.0;"/><polygon fill="#181818" points="370.35,256.38,379.7865,253.5599,374.1463,253.126,374.5801,247.4859,370.35,256.38" style="stroke:#181818;stroke-width:1.0;"/><text fill="#000000" font-family="sans-serif" font-size="13" lengthAdjust="spacing" textLength="38" x="433.5" y="212.0669">coach</text><text fill="#000000" font-family="sans-serif" font-size="13" lengthAdjust="spacing" textLength="8" x="477.3867" y="153.7601">1</text><text fill="#000000" font-family="sans-serif" font-size="13" lengthAdjust="spacing" textLength="24" x="373.4632" y="242.787">0..1</text></g><!--MD5=[f6131654d5bae01bf523e6b09ccedc4c]
link Team to Player--><g id="link_Team_Player"><path codeLine="97" d="M268.62,383.64 C257.17,408.04 243.75,436.63 230.85,464.11 " fill="none" id="Team-to-Player" style="stroke:#181818;stroke-width:1.0;"/><polygon fill="#181818" points="228.62,468.87,236.0764,462.4355,230.7524,464.3475,228.8404,459.0236,228.62,468.87" style="stroke:#181818;stroke-width:1.0;"/><text fill="#000000" font-family="sans-serif" font-size="13" lengthAdjust="spacing" textLength="8" x="256.7026" y="404.0278">1</text><text fill="#000000" font-family="sans-serif" font-size="13" lengthAdjust="spacing" textLength="23" x="208.2652" y="457.9882">0..*</text></g><!--MD5=[a739cbbf30ad9ca98b69a3d6b11b3c4f]
link Tournament to Match--><g id="link_Tournament_Match"><path codeLine="98" d="M476.2,392.31 C475.1,407.93 472.79,424.2 468.5,439 C463.62,455.83 456.27,472.84 448.04,488.83 " fill="none" id="Tournament-to-Match" style="stroke:#181818;stroke-width:1.0;"/><polygon fill="#181818" points="445.7,493.31,453.4135,487.1861,448.0158,488.8786,446.3233,483.4809,445.7,493.31" style="stroke:#181818;stroke-width:1.0;"/><text fill="#000000" font-family="sans-serif" font-size="13" lengthAdjust="spacing" textLength="8" x="467.988" y="411.8428">1</text><text fill="#000000" font-family="sans-serif" font-size="13" lengthAdjust="spacing" textLength="23" x="426.4139" y="482.4804">0..*</text></g><!--MD5=[0298958ccae57a39411b30d75d3e8adb]
link Team to Match--><g id="link_Team_Match"><path codeLine="99" d="M268.75,383.64 C264.05,401.82 262.69,421.46 269.5,439 C276.41,456.79 286.89,473.67 298.88,489.08 " fill="none" id="Team-to-Match" style="stroke:#181818;stroke-width:1.0;"/><polygon fill="#181818" points="302.3,493.38,299.8481,483.8412,299.1958,489.4604,293.5766,488.808,302.3,493.38" style="stroke:#181818;stroke-width:1.0;"/><text fill="#000000" font-family="sans-serif" font-size="13" lengthAdjust="spacing" textLength="78" x="270.5" y="435.0669">home_team</text><text fill="#000000" font-family="sans-serif" font-size="13" lengthAdjust="spacing" textLength="8" x="265.7727" y="404.0278">1</text><text fill="#000000" font-family="sans-serif" font-size="13" lengthAdjust="spacing" textLength="23" x="270.2423" y="482.5566">0..*</text></g><!--MD5=[0298958ccae57a39411b30d75d3e8adb]
link Team to Match--><g id="link_Team_Match"><path codeLine="100" d="M335.85,383.62 C342.29,396.09 348.51,409.26 353.5,422 C361.74,443.04 368.74,466.41 374.44,488.37 " fill="none" id="Team-to-Match-1" style="stroke:#181818;stroke-width:1.0;"/><polygon fill="#181818" points="375.72,493.33,377.3572,483.6182,374.4771,488.4869,369.6083,485.6068,375.72,493.33" style="stroke:#181818;stroke-width:1.0;"/><text fill="#000000" font-family="sans-serif" font-size="13" lengthAdjust="spacing" textLength="73" x="360.5" y="435.0669">away_team</text><text fill="#000000" font-family="sans-serif" font-size="13" lengthAdjust="spacing" textLength="8" x="331.7061" y="404.0054">1</text><text fill="#000000" font-family="sans-serif" font-size="13" lengthAdjust="spacing" textLength="23" x="350.2013" y="482.5022">0..*</text></g><!--MD5=[9b34889314dc356891aef66f51eaea3a]
link Player to PlayerStatistics--><g id="link_Player_PlayerStatistics"><path codeLine="101" d="M179.5,680.07 C179.5,698.52 179.5,717.62 179.5,735.73 " fill="none" id="Player-to-PlayerStatistics" style="stroke:#181818;stroke-width:1.0;"/><polygon fill="#181818" points="179.5,740.82,183.5,731.82,179.5,735.82,175.5,731.82,179.5,740.82" style="stroke:#181818;stroke-width:1.0;"/><text fill="#000000" font-family="sans-serif" font-size="13" lengthAdjust="spacing" textLength="8" x="171.2188" y="700.0929">1</text><text fill="#000000" font-family="sans-serif" font-size="13" lengthAdjust="spacing" textLength="24" x="154.5063" y="729.8706">0..1</text></g><!--MD5=[0079837541c11b52eaee09b3a21ae17f]
link Player to PlayerMatch--><g id="link_Player_PlayerMatch"><path codeLine="102" d="M256.57,675.69 C276.29,701.33 297.19,728.49 315.82,752.71 " fill="none" id="Player-to-PlayerMatch" style="stroke:#181818;stroke-width:1.0;"/><polygon fill="#181818" points="319.03,756.89,316.7314,747.3131,315.989,752.921,310.3811,752.1787,319.03,756.89" style="stroke:#181818;stroke-width:1.0;"/><text fill="#000000" font-family="sans-serif" font-size="13" lengthAdjust="spacing" textLength="8" x="264.5503" y="681.9876">1</text><text fill="#000000" font-family="sans-serif" font-size="13" lengthAdjust="spacing" textLength="23" x="289.4376" y="746.0392">0..*</text></g><!--MD5=[18db8ae5e0ea005fdb87736765db6800]
link Match to PlayerMatch--><g id="link_Match_PlayerMatch"><path codeLine="103" d="M386.8,655.71 C384.63,686.29 382.16,721.06 380.01,751.39 " fill="none" id="Match-to-PlayerMatch" style="stroke:#181818;stroke-width:1.0;"/><polygon fill="#181818" points="379.64,756.61,384.2728,747.9188,379.9973,751.6228,376.2933,747.3472,379.64,756.61" style="stroke:#181818;stroke-width:1.0;"/><text fill="#000000" font-family="sans-serif" font-size="13" lengthAdjust="spacing" textLength="8" x="377.9361" y="675.6801">1</text><text fill="#000000" font-family="sans-serif" font-size="13" lengthAdjust="spacing" textLength="23" x="356.0338" y="745.9838">0..*</text></g><!--MD5=[7f270fd4a03edf51e01af2346949c713]
@startuml
class User {
  +id: int
  +username: string
  +email: string
  +password: string
  +role: Role
  +created_at: time
  +updated_at: time
}

class Role {
  +id: int
  +name: string
}

class Team {
  +id: int
  +name: string
  +coach: User
  +created_at: time
  +updated_at: time
}

class Player {
  +id: int
  +user: User
  +team: Team
  +position: string
  +jersey_number: int
  +points: int
  +assists: int
  +blocks: int
  +aces: int
  +created_at: time
}

class Tournament {
  +id: int
  +name: string
  +category: string
  +start_date: date
  +end_date: date
  +created_at: time
}

class Match {
  +id: int
  +home_team: Team
  +away_team: Team
  +tournament: Tournament
  +date: datetime
  +result: string
  +created_at: time
}

class PlayerMatch {
  +player: Player
  +match: Match
  +points: int
  +assists: int
  +blocks: int
  +aces: int
}

class PlayerStatistics {
  +id: int
  +player: Player
  +matches_played: int
  +points_scored: int
  +assists: int
  +blocks: int
  +aces: int
  +created_at: time
}

class ActionLog {
  +id: int
  +user: User
  +action_type: string
  +created_at: time
}

class Message {
  +id: int
  +sender: User
  +receiver: User
  +content: string
  +created_at: time
}

User "1" - -> "0..1" Role
User "1" - -> "0..*" ActionLog
User "1" - -> "0..*" Message : sender
User "1" - -> "0..*" Message : receiver
User "1" - -> "0..1" Player
User "1" - -> "0..1" Team : coach
Team "1" - -> "0..*" Player
Tournament "1" - -> "0..*" Match
Team "1" - -> "0..*" Match : home_team
Team "1" - -> "0..*" Match : away_team
Player "1" - -> "0..1" PlayerStatistics
Player "1" - -> "0..*" PlayerMatch
Match "1" - -> "0..*" PlayerMatch
@enduml

PlantUML version 1.2022.7(Mon Aug 22 17:01:30 UTC 2022)
(GPL source distribution)
Java Runtime: OpenJDK Runtime Environment
JVM: OpenJDK 64-Bit Server VM
Default Encoding: UTF-8
Language: en
Country: null
--></g></svg>