<?xml version="1.0" encoding="UTF-8" standalone="no"?><svg xmlns="http://www.w3.org/2000/svg" xmlns:xlink="http://www.w3.org/1999/xlink" contentStyleType="text/css" height="860px" preserveAspectRatio="none" style="width:1068px;height:860px;background:#FFFFFF;" version="1.1" viewBox="0 0 1068 860" width="1068px" zoomAndPan="magnify"><defs/><g><!--MD5=[3fd616f346a44cd59a91eb10b19e157c]
class User--><g id="elem_User"><rect codeLine="1" fill="#F1F1F1" height="162.0781" id="User" rx="2.5" ry="2.5" style="stroke:#181818;stroke-width:0.5;" width="186" x="552.5" y="7"/><ellipse cx="625.25" cy="23" fill="#ADD1B2" rx="11" ry="11" style="stroke:#181818;stroke-width:1.0;"/><path d="M628.2188,28.6406 Q627.6406,28.9375 627,29.0781 Q626.3594,29.2344 625.6563,29.2344 Q623.1563,29.2344 621.8281,27.5938 Q620.5156,25.9375 620.5156,22.8125 Q620.5156,19.6875 621.8281,18.0313 Q623.1563,16.375 625.6563,16.375 Q626.3594,16.375 627,16.5313 Q627.6563,16.6875 628.2188,16.9844 L628.2188,19.7031 Q627.5938,19.125 627,18.8594 Q626.4063,18.5781 625.7813,18.5781 Q624.4375,18.5781 623.75,19.6563 Q623.0625,20.7188 623.0625,22.8125 Q623.0625,24.9063 623.75,25.9844 Q624.4375,27.0469 625.7813,27.0469 Q626.4063,27.0469 627,26.7813 Q627.5938,26.5 628.2188,25.9219 L628.2188,28.6406 Z " fill="#000000"/><text fill="#000000" font-family="sans-serif" font-size="14" lengthAdjust="spacing" textLength="32" x="645.75" y="27.8467">User</text><line style="stroke:#181818;stroke-width:0.5;" x1="553.5" x2="737.5" y1="39" y2="39"/><ellipse cx="563.5" cy="52.6484" fill="none" rx="3" ry="3" style="stroke:#038048;stroke-width:1.0;"/><text fill="#000000" font-family="sans-serif" font-size="14" lengthAdjust="spacing" textLength="38" x="572.5" y="55.9951">id: int</text><ellipse cx="563.5" cy="68.9453" fill="none" rx="3" ry="3" style="stroke:#038048;stroke-width:1.0;"/><text fill="#000000" font-family="sans-serif" font-size="14" lengthAdjust="spacing" textLength="118" x="572.5" y="72.292">username: string</text><ellipse cx="563.5" cy="85.2422" fill="none" rx="3" ry="3" style="stroke:#038048;stroke-width:1.0;"/><text fill="#000000" font-family="sans-serif" font-size="14" lengthAdjust="spacing" textLength="84" x="572.5" y="88.5889">email: string</text><ellipse cx="563.5" cy="101.5391" fill="none" rx="3" ry="3" style="stroke:#038048;stroke-width:1.0;"/><text fill="#000000" font-family="sans-serif" font-size="14" lengthAdjust="spacing" textLength="115" x="572.5" y="104.8857">password: string</text><ellipse cx="563.5" cy="117.8359" fill="none" rx="3" ry="3" style="stroke:#038048;stroke-width:1.0;"/><text fill="#000000" font-family="sans-serif" font-size="14" lengthAdjust="spacing" textLength="66" x="572.5" y="121.1826">role: Role</text><ellipse cx="563.5" cy="134.1328" fill="none" rx="3" ry="3" style="stroke:#038048;stroke-width:1.0;"/><text fill="#000000" font-family="sans-serif" font-size="14" lengthAdjust="spacing" textLength="155" x="572.5" y="137.4795">created_at: timestamp</text><ellipse cx="563.5" cy="150.4297" fill="none" rx="3" ry="3" style="stroke:#038048;stroke-width:1.0;"/><text fill="#000000" font-family="sans-serif" font-size="14" lengthAdjust="spacing" textLength="160" x="572.5" y="153.7764">updated_at: timestamp</text><line style="stroke:#181818;stroke-width:0.5;" x1="553.5" x2="737.5" y1="161.0781" y2="161.0781"/></g><!--MD5=[a3638c1e5b65d287ecad7f06f5c0f212]
class Role--><g id="elem_Role"><rect codeLine="11" fill="#F1F1F1" height="80.5938" id="Role" rx="2.5" ry="2.5" style="stroke:#181818;stroke-width:0.5;" width="113" x="7" y="278.5"/><ellipse cx="44.5" cy="294.5" fill="#ADD1B2" rx="11" ry="11" style="stroke:#181818;stroke-width:1.0;"/><path d="M47.4688,300.1406 Q46.8906,300.4375 46.25,300.5781 Q45.6094,300.7344 44.9063,300.7344 Q42.4063,300.7344 41.0781,299.0938 Q39.7656,297.4375 39.7656,294.3125 Q39.7656,291.1875 41.0781,289.5313 Q42.4063,287.875 44.9063,287.875 Q45.6094,287.875 46.25,288.0313 Q46.9063,288.1875 47.4688,288.4844 L47.4688,291.2031 Q46.8438,290.625 46.25,290.3594 Q45.6563,290.0781 45.0313,290.0781 Q43.6875,290.0781 43,291.1563 Q42.3125,292.2188 42.3125,294.3125 Q42.3125,296.4063 43,297.4844 Q43.6875,298.5469 45.0313,298.5469 Q45.6563,298.5469 46.25,298.2813 Q46.8438,298 47.4688,297.4219 L47.4688,300.1406 Z " fill="#000000"/><text fill="#000000" font-family="sans-serif" font-size="14" lengthAdjust="spacing" textLength="31" x="63.5" y="299.3467">Role</text><line style="stroke:#181818;stroke-width:0.5;" x1="8" x2="119" y1="310.5" y2="310.5"/><ellipse cx="18" cy="324.1484" fill="none" rx="3" ry="3" style="stroke:#038048;stroke-width:1.0;"/><text fill="#000000" font-family="sans-serif" font-size="14" lengthAdjust="spacing" textLength="38" x="27" y="327.4951">id: int</text><ellipse cx="18" cy="340.4453" fill="none" rx="3" ry="3" style="stroke:#038048;stroke-width:1.0;"/><text fill="#000000" font-family="sans-serif" font-size="14" lengthAdjust="spacing" textLength="87" x="27" y="343.792">name: string</text><line style="stroke:#181818;stroke-width:0.5;" x1="8" x2="119" y1="351.0938" y2="351.0938"/></g><!--MD5=[dfb0845b8492ffe07b1ce50e003034d7]
class Team--><g id="elem_Team"><rect codeLine="16" fill="#F1F1F1" height="129.4844" id="Team" rx="2.5" ry="2.5" style="stroke:#181818;stroke-width:0.5;" width="186" x="226.5" y="254.5"/><ellipse cx="295.75" cy="270.5" fill="#ADD1B2" rx="11" ry="11" style="stroke:#181818;stroke-width:1.0;"/><path d="M298.7188,276.1406 Q298.1406,276.4375 297.5,276.5781 Q296.8594,276.7344 296.1563,276.7344 Q293.6563,276.7344 292.3281,275.0938 Q291.0156,273.4375 291.0156,270.3125 Q291.0156,267.1875 292.3281,265.5313 Q293.6563,263.875 296.1563,263.875 Q296.8594,263.875 297.5,264.0313 Q298.1563,264.1875 298.7188,264.4844 L298.7188,267.2031 Q298.0938,266.625 297.5,266.3594 Q296.9063,266.0781 296.2813,266.0781 Q294.9375,266.0781 294.25,267.1563 Q293.5625,268.2188 293.5625,270.3125 Q293.5625,272.4063 294.25,273.4844 Q294.9375,274.5469 296.2813,274.5469 Q296.9063,274.5469 297.5,274.2813 Q298.0938,274 298.7188,273.4219 L298.7188,276.1406 Z " fill="#000000"/><text fill="#000000" font-family="sans-serif" font-size="14" lengthAdjust="spacing" textLength="39" x="316.25" y="275.3467">Team</text><line style="stroke:#181818;stroke-width:0.5;" x1="227.5" x2="411.5" y1="286.5" y2="286.5"/><ellipse cx="237.5" cy="300.1484" fill="none" rx="3" ry="3" style="stroke:#038048;stroke-width:1.0;"/><text fill="#000000" font-family="sans-serif" font-size="14" lengthAdjust="spacing" textLength="38" x="246.5" y="303.4951">id: int</text><ellipse cx="237.5" cy="316.4453" fill="none" rx="3" ry="3" style="stroke:#038048;stroke-width:1.0;"/><text fill="#000000" font-family="sans-serif" font-size="14" lengthAdjust="spacing" textLength="87" x="246.5" y="319.792">name: string</text><ellipse cx="237.5" cy="332.7422" fill="none" rx="3" ry="3" style="stroke:#038048;stroke-width:1.0;"/><text fill="#000000" font-family="sans-serif" font-size="14" lengthAdjust="spacing" textLength="83" x="246.5" y="336.0889">coach: User</text><ellipse cx="237.5" cy="349.0391" fill="none" rx="3" ry="3" style="stroke:#038048;stroke-width:1.0;"/><text fill="#000000" font-family="sans-serif" font-size="14" lengthAdjust="spacing" textLength="155" x="246.5" y="352.3857">created_at: timestamp</text><ellipse cx="237.5" cy="365.3359" fill="none" rx="3" ry="3" style="stroke:#038048;stroke-width:1.0;"/><text fill="#000000" font-family="sans-serif" font-size="14" lengthAdjust="spacing" textLength="160" x="246.5" y="368.6826">updated_at: timestamp</text><line style="stroke:#181818;stroke-width:0.5;" x1="227.5" x2="411.5" y1="375.9844" y2="375.9844"/></g><!--MD5=[2cb47ba637a0d19583e6199456f6ad0b]
class Player--><g id="elem_Player"><rect codeLine="24" fill="#F1F1F1" height="178.375" id="Player" rx="2.5" ry="2.5" style="stroke:#181818;stroke-width:0.5;" width="181" x="123" y="469"/><ellipse cx="188.75" cy="485" fill="#ADD1B2" rx="11" ry="11" style="stroke:#181818;stroke-width:1.0;"/><path d="M191.7188,490.6406 Q191.1406,490.9375 190.5,491.0781 Q189.8594,491.2344 189.1563,491.2344 Q186.6563,491.2344 185.3281,489.5938 Q184.0156,487.9375 184.0156,484.8125 Q184.0156,481.6875 185.3281,480.0313 Q186.6563,478.375 189.1563,478.375 Q189.8594,478.375 190.5,478.5313 Q191.1563,478.6875 191.7188,478.9844 L191.7188,481.7031 Q191.0938,481.125 190.5,480.8594 Q189.9063,480.5781 189.2813,480.5781 Q187.9375,480.5781 187.25,481.6563 Q186.5625,482.7188 186.5625,484.8125 Q186.5625,486.9063 187.25,487.9844 Q187.9375,489.0469 189.2813,489.0469 Q189.9063,489.0469 190.5,488.7813 Q191.0938,488.5 191.7188,487.9219 L191.7188,490.6406 Z " fill="#000000"/><text fill="#000000" font-family="sans-serif" font-size="14" lengthAdjust="spacing" textLength="41" x="209.25" y="489.8467">Player</text><line style="stroke:#181818;stroke-width:0.5;" x1="124" x2="303" y1="501" y2="501"/><ellipse cx="134" cy="514.6484" fill="none" rx="3" ry="3" style="stroke:#038048;stroke-width:1.0;"/><text fill="#000000" font-family="sans-serif" font-size="14" lengthAdjust="spacing" textLength="38" x="143" y="517.9951">id: int</text><ellipse cx="134" cy="530.9453" fill="none" rx="3" ry="3" style="stroke:#038048;stroke-width:1.0;"/><text fill="#000000" font-family="sans-serif" font-size="14" lengthAdjust="spacing" textLength="72" x="143" y="534.292">user: User</text><ellipse cx="134" cy="547.2422" fill="none" rx="3" ry="3" style="stroke:#038048;stroke-width:1.0;"/><text fill="#000000" font-family="sans-serif" font-size="14" lengthAdjust="spacing" textLength="83" x="143" y="550.5889">team: Team</text><ellipse cx="134" cy="563.5391" fill="none" rx="3" ry="3" style="stroke:#038048;stroke-width:1.0;"/><text fill="#000000" font-family="sans-serif" font-size="14" lengthAdjust="spacing" textLength="103" x="143" y="566.8857">position: string</text><ellipse cx="134" cy="579.8359" fill="none" rx="3" ry="3" style="stroke:#038048;stroke-width:1.0;"/><text fill="#000000" font-family="sans-serif" font-size="14" lengthAdjust="spacing" textLength="128" x="143" y="583.1826">jersey_number: int</text><ellipse cx="134" cy="596.1328" fill="none" rx="3" ry="3" style="stroke:#038048;stroke-width:1.0;"/><text fill="#000000" font-family="sans-serif" font-size="14" lengthAdjust="spacing" textLength="63" x="143" y="599.4795">goals: int</text><ellipse cx="134" cy="612.4297" fill="none" rx="3" ry="3" style="stroke:#038048;stroke-width:1.0;"/><text fill="#000000" font-family="sans-serif" font-size="14" lengthAdjust="spacing" textLength="74" x="143" y="615.7764">assists: int</text><ellipse cx="134" cy="628.7266" fill="none" rx="3" ry="3" style="stroke:#038048;stroke-width:1.0;"/><text fill="#000000" font-family="sans-serif" font-size="14" lengthAdjust="spacing" textLength="155" x="143" y="632.0732">created_at: timestamp</text><line style="stroke:#181818;stroke-width:0.5;" x1="124" x2="303" y1="639.375" y2="639.375"/></g><!--MD5=[a4b4d324fd2684dbb9bd6a0eaf7882b2]
class Tournament--><g id="elem_Tournament"><rect codeLine="35" fill="#F1F1F1" height="145.7813" id="Tournament" rx="2.5" ry="2.5" style="stroke:#181818;stroke-width:0.5;" width="181" x="448" y="246"/><ellipse cx="491.8" cy="262" fill="#ADD1B2" rx="11" ry="11" style="stroke:#181818;stroke-width:1.0;"/><path d="M494.7688,267.6406 Q494.1906,267.9375 493.55,268.0781 Q492.9094,268.2344 492.2063,268.2344 Q489.7063,268.2344 488.3781,266.5938 Q487.0656,264.9375 487.0656,261.8125 Q487.0656,258.6875 488.3781,257.0313 Q489.7063,255.375 492.2063,255.375 Q492.9094,255.375 493.55,255.5313 Q494.2063,255.6875 494.7688,255.9844 L494.7688,258.7031 Q494.1438,258.125 493.55,257.8594 Q492.9563,257.5781 492.3313,257.5781 Q490.9875,257.5781 490.3,258.6563 Q489.6125,259.7188 489.6125,261.8125 Q489.6125,263.9063 490.3,264.9844 Q490.9875,266.0469 492.3313,266.0469 Q492.9563,266.0469 493.55,265.7813 Q494.1438,265.5 494.7688,264.9219 L494.7688,267.6406 Z " fill="#000000"/><text fill="#000000" font-family="sans-serif" font-size="14" lengthAdjust="spacing" textLength="85" x="512.2" y="266.8467">Tournament</text><line style="stroke:#181818;stroke-width:0.5;" x1="449" x2="628" y1="278" y2="278"/><ellipse cx="459" cy="291.6484" fill="none" rx="3" ry="3" style="stroke:#038048;stroke-width:1.0;"/><text fill="#000000" font-family="sans-serif" font-size="14" lengthAdjust="spacing" textLength="38" x="468" y="294.9951">id: int</text><ellipse cx="459" cy="307.9453" fill="none" rx="3" ry="3" style="stroke:#038048;stroke-width:1.0;"/><text fill="#000000" font-family="sans-serif" font-size="14" lengthAdjust="spacing" textLength="87" x="468" y="311.292">name: string</text><ellipse cx="459" cy="324.2422" fill="none" rx="3" ry="3" style="stroke:#038048;stroke-width:1.0;"/><text fill="#000000" font-family="sans-serif" font-size="14" lengthAdjust="spacing" textLength="108" x="468" y="327.5889">category: string</text><ellipse cx="459" cy="340.5391" fill="none" rx="3" ry="3" style="stroke:#038048;stroke-width:1.0;"/><text fill="#000000" font-family="sans-serif" font-size="14" lengthAdjust="spacing" textLength="109" x="468" y="343.8857">start_date: date</text><ellipse cx="459" cy="356.8359" fill="none" rx="3" ry="3" style="stroke:#038048;stroke-width:1.0;"/><text fill="#000000" font-family="sans-serif" font-size="14" lengthAdjust="spacing" textLength="105" x="468" y="360.1826">end_date: date</text><ellipse cx="459" cy="373.1328" fill="none" rx="3" ry="3" style="stroke:#038048;stroke-width:1.0;"/><text fill="#000000" font-family="sans-serif" font-size="14" lengthAdjust="spacing" textLength="155" x="468" y="376.4795">created_at: timestamp</text><line style="stroke:#181818;stroke-width:0.5;" x1="449" x2="628" y1="383.7813" y2="383.7813"/></g><!--MD5=[5f0899136ed8f523b18ed05779c24112]
class Match--><g id="elem_Match"><rect codeLine="44" fill="#F1F1F1" height="162.0781" id="Match" rx="2.5" ry="2.5" style="stroke:#181818;stroke-width:0.5;" width="201" x="339" y="477"/><ellipse cx="414.25" cy="493" fill="#ADD1B2" rx="11" ry="11" style="stroke:#181818;stroke-width:1.0;"/><path d="M417.2188,498.6406 Q416.6406,498.9375 416,499.0781 Q415.3594,499.2344 414.6563,499.2344 Q412.1563,499.2344 410.8281,497.5938 Q409.5156,495.9375 409.5156,492.8125 Q409.5156,489.6875 410.8281,488.0313 Q412.1563,486.375 414.6563,486.375 Q415.3594,486.375 416,486.5313 Q416.6563,486.6875 417.2188,486.9844 L417.2188,489.7031 Q416.5938,489.125 416,488.8594 Q415.4063,488.5781 414.7813,488.5781 Q413.4375,488.5781 412.75,489.6563 Q412.0625,490.7188 412.0625,492.8125 Q412.0625,494.9063 412.75,495.9844 Q413.4375,497.0469 414.7813,497.0469 Q415.4063,497.0469 416,496.7813 Q416.5938,496.5 417.2188,495.9219 L417.2188,498.6406 Z " fill="#000000"/><text fill="#000000" font-family="sans-serif" font-size="14" lengthAdjust="spacing" textLength="42" x="434.75" y="497.8467">Match</text><line style="stroke:#181818;stroke-width:0.5;" x1="340" x2="539" y1="509" y2="509"/><ellipse cx="350" cy="522.6484" fill="none" rx="3" ry="3" style="stroke:#038048;stroke-width:1.0;"/><text fill="#000000" font-family="sans-serif" font-size="14" lengthAdjust="spacing" textLength="38" x="359" y="525.9951">id: int</text><ellipse cx="350" cy="538.9453" fill="none" rx="3" ry="3" style="stroke:#038048;stroke-width:1.0;"/><text fill="#000000" font-family="sans-serif" font-size="14" lengthAdjust="spacing" textLength="130" x="359" y="542.292">home_team: Team</text><ellipse cx="350" cy="555.2422" fill="none" rx="3" ry="3" style="stroke:#038048;stroke-width:1.0;"/><text fill="#000000" font-family="sans-serif" font-size="14" lengthAdjust="spacing" textLength="124" x="359" y="558.5889">away_team: Team</text><ellipse cx="350" cy="571.5391" fill="none" rx="3" ry="3" style="stroke:#038048;stroke-width:1.0;"/><text fill="#000000" font-family="sans-serif" font-size="14" lengthAdjust="spacing" textLength="175" x="359" y="574.8857">tournament: Tournament</text><ellipse cx="350" cy="587.8359" fill="none" rx="3" ry="3" style="stroke:#038048;stroke-width:1.0;"/><text fill="#000000" font-family="sans-serif" font-size="14" lengthAdjust="spacing" textLength="101" x="359" y="591.1826">date: datetime</text><ellipse cx="350" cy="604.1328" fill="none" rx="3" ry="3" style="stroke:#038048;stroke-width:1.0;"/><text fill="#000000" font-family="sans-serif" font-size="14" lengthAdjust="spacing" textLength="87" x="359" y="607.4795">result: string</text><ellipse cx="350" cy="620.4297" fill="none" rx="3" ry="3" style="stroke:#038048;stroke-width:1.0;"/><text fill="#000000" font-family="sans-serif" font-size="14" lengthAdjust="spacing" textLength="155" x="359" y="623.7764">created_at: timestamp</text><line style="stroke:#181818;stroke-width:0.5;" x1="340" x2="539" y1="631.0781" y2="631.0781"/></g><!--MD5=[97cf1a1ebfbea5b45ef064f4e6d9b694]
class PlayerMatch--><g id="elem_PlayerMatch"><rect codeLine="54" fill="#F1F1F1" height="113.1875" id="PlayerMatch" rx="2.5" ry="2.5" style="stroke:#181818;stroke-width:0.5;" width="120" x="359.5" y="724.5"/><ellipse cx="376.75" cy="740.5" fill="#ADD1B2" rx="11" ry="11" style="stroke:#181818;stroke-width:1.0;"/><path d="M379.7188,746.1406 Q379.1406,746.4375 378.5,746.5781 Q377.8594,746.7344 377.1563,746.7344 Q374.6563,746.7344 373.3281,745.0938 Q372.0156,743.4375 372.0156,740.3125 Q372.0156,737.1875 373.3281,735.5313 Q374.6563,733.875 377.1563,733.875 Q377.8594,733.875 378.5,734.0313 Q379.1563,734.1875 379.7188,734.4844 L379.7188,737.2031 Q379.0938,736.625 378.5,736.3594 Q377.9063,736.0781 377.2813,736.0781 Q375.9375,736.0781 375.25,737.1563 Q374.5625,738.2188 374.5625,740.3125 Q374.5625,742.4063 375.25,743.4844 Q375.9375,744.5469 377.2813,744.5469 Q377.9063,744.5469 378.5,744.2813 Q379.0938,744 379.7188,743.4219 L379.7188,746.1406 Z " fill="#000000"/><text fill="#000000" font-family="sans-serif" font-size="14" lengthAdjust="spacing" textLength="83" x="391.25" y="745.3467">PlayerMatch</text><line style="stroke:#181818;stroke-width:0.5;" x1="360.5" x2="478.5" y1="756.5" y2="756.5"/><ellipse cx="370.5" cy="770.1484" fill="none" rx="3" ry="3" style="stroke:#038048;stroke-width:1.0;"/><text fill="#000000" font-family="sans-serif" font-size="14" lengthAdjust="spacing" textLength="91" x="379.5" y="773.4951">player: Player</text><ellipse cx="370.5" cy="786.4453" fill="none" rx="3" ry="3" style="stroke:#038048;stroke-width:1.0;"/><text fill="#000000" font-family="sans-serif" font-size="14" lengthAdjust="spacing" textLength="94" x="379.5" y="789.792">match: Match</text><ellipse cx="370.5" cy="802.7422" fill="none" rx="3" ry="3" style="stroke:#038048;stroke-width:1.0;"/><text fill="#000000" font-family="sans-serif" font-size="14" lengthAdjust="spacing" textLength="63" x="379.5" y="806.0889">goals: int</text><ellipse cx="370.5" cy="819.0391" fill="none" rx="3" ry="3" style="stroke:#038048;stroke-width:1.0;"/><text fill="#000000" font-family="sans-serif" font-size="14" lengthAdjust="spacing" textLength="74" x="379.5" y="822.3857">assists: int</text><line style="stroke:#181818;stroke-width:0.5;" x1="360.5" x2="478.5" y1="829.6875" y2="829.6875"/></g><!--MD5=[f722b562e8a02532a8493b65cd362b58]
class PlayerStatistics--><g id="elem_PlayerStatistics"><rect codeLine="61" fill="#F1F1F1" height="145.7813" id="PlayerStatistics" rx="2.5" ry="2.5" style="stroke:#181818;stroke-width:0.5;" width="181" x="123" y="708"/><ellipse cx="158.7" cy="724" fill="#ADD1B2" rx="11" ry="11" style="stroke:#181818;stroke-width:1.0;"/><path d="M161.6688,729.6406 Q161.0906,729.9375 160.45,730.0781 Q159.8094,730.2344 159.1063,730.2344 Q156.6063,730.2344 155.2781,728.5938 Q153.9656,726.9375 153.9656,723.8125 Q153.9656,720.6875 155.2781,719.0313 Q156.6063,717.375 159.1063,717.375 Q159.8094,717.375 160.45,717.5313 Q161.1063,717.6875 161.6688,717.9844 L161.6688,720.7031 Q161.0438,720.125 160.45,719.8594 Q159.8563,719.5781 159.2313,719.5781 Q157.8875,719.5781 157.2,720.6563 Q156.5125,721.7188 156.5125,723.8125 Q156.5125,725.9063 157.2,726.9844 Q157.8875,728.0469 159.2313,728.0469 Q159.8563,728.0469 160.45,727.7813 Q161.0438,727.5 161.6688,726.9219 L161.6688,729.6406 Z " fill="#000000"/><text fill="#000000" font-family="sans-serif" font-size="14" lengthAdjust="spacing" textLength="103" x="177.3" y="728.8467">PlayerStatistics</text><line style="stroke:#181818;stroke-width:0.5;" x1="124" x2="303" y1="740" y2="740"/><ellipse cx="134" cy="753.6484" fill="none" rx="3" ry="3" style="stroke:#038048;stroke-width:1.0;"/><text fill="#000000" font-family="sans-serif" font-size="14" lengthAdjust="spacing" textLength="38" x="143" y="756.9951">id: int</text><ellipse cx="134" cy="769.9453" fill="none" rx="3" ry="3" style="stroke:#038048;stroke-width:1.0;"/><text fill="#000000" font-family="sans-serif" font-size="14" lengthAdjust="spacing" textLength="91" x="143" y="773.292">player: Player</text><ellipse cx="134" cy="786.2422" fill="none" rx="3" ry="3" style="stroke:#038048;stroke-width:1.0;"/><text fill="#000000" font-family="sans-serif" font-size="14" lengthAdjust="spacing" textLength="138" x="143" y="789.5889">matches_played: int</text><ellipse cx="134" cy="802.5391" fill="none" rx="3" ry="3" style="stroke:#038048;stroke-width:1.0;"/><text fill="#000000" font-family="sans-serif" font-size="14" lengthAdjust="spacing" textLength="118" x="143" y="805.8857">goals_scored: int</text><ellipse cx="134" cy="818.8359" fill="none" rx="3" ry="3" style="stroke:#038048;stroke-width:1.0;"/><text fill="#000000" font-family="sans-serif" font-size="14" lengthAdjust="spacing" textLength="74" x="143" y="822.1826">assists: int</text><ellipse cx="134" cy="835.1328" fill="none" rx="3" ry="3" style="stroke:#038048;stroke-width:1.0;"/><text fill="#000000" font-family="sans-serif" font-size="14" lengthAdjust="spacing" textLength="155" x="143" y="838.4795">created_at: timestamp</text><line style="stroke:#181818;stroke-width:0.5;" x1="124" x2="303" y1="845.7813" y2="845.7813"/></g><!--MD5=[7b1fe61636788f4cc8d26c03effb0cc2]
class ActionLog--><g id="elem_ActionLog"><rect codeLine="70" fill="#F1F1F1" height="113.1875" id="ActionLog" rx="2.5" ry="2.5" style="stroke:#181818;stroke-width:0.5;" width="181" x="664" y="262.5"/><ellipse cx="716.25" cy="278.5" fill="#ADD1B2" rx="11" ry="11" style="stroke:#181818;stroke-width:1.0;"/><path d="M719.2188,284.1406 Q718.6406,284.4375 718,284.5781 Q717.3594,284.7344 716.6563,284.7344 Q714.1563,284.7344 712.8281,283.0938 Q711.5156,281.4375 711.5156,278.3125 Q711.5156,275.1875 712.8281,273.5313 Q714.1563,271.875 716.6563,271.875 Q717.3594,271.875 718,272.0313 Q718.6563,272.1875 719.2188,272.4844 L719.2188,275.2031 Q718.5938,274.625 718,274.3594 Q717.4063,274.0781 716.7813,274.0781 Q715.4375,274.0781 714.75,275.1563 Q714.0625,276.2188 714.0625,278.3125 Q714.0625,280.4063 714.75,281.4844 Q715.4375,282.5469 716.7813,282.5469 Q717.4063,282.5469 718,282.2813 Q718.5938,282 719.2188,281.4219 L719.2188,284.1406 Z " fill="#000000"/><text fill="#000000" font-family="sans-serif" font-size="14" lengthAdjust="spacing" textLength="68" x="736.75" y="283.3467">ActionLog</text><line style="stroke:#181818;stroke-width:0.5;" x1="665" x2="844" y1="294.5" y2="294.5"/><ellipse cx="675" cy="308.1484" fill="none" rx="3" ry="3" style="stroke:#038048;stroke-width:1.0;"/><text fill="#000000" font-family="sans-serif" font-size="14" lengthAdjust="spacing" textLength="38" x="684" y="311.4951">id: int</text><ellipse cx="675" cy="324.4453" fill="none" rx="3" ry="3" style="stroke:#038048;stroke-width:1.0;"/><text fill="#000000" font-family="sans-serif" font-size="14" lengthAdjust="spacing" textLength="72" x="684" y="327.792">user: User</text><ellipse cx="675" cy="340.7422" fill="none" rx="3" ry="3" style="stroke:#038048;stroke-width:1.0;"/><text fill="#000000" font-family="sans-serif" font-size="14" lengthAdjust="spacing" textLength="127" x="684" y="344.0889">action_type: string</text><ellipse cx="675" cy="357.0391" fill="none" rx="3" ry="3" style="stroke:#038048;stroke-width:1.0;"/><text fill="#000000" font-family="sans-serif" font-size="14" lengthAdjust="spacing" textLength="155" x="684" y="360.3857">created_at: timestamp</text><line style="stroke:#181818;stroke-width:0.5;" x1="665" x2="844" y1="367.6875" y2="367.6875"/></g><!--MD5=[bea5b0d46523efab5ea1c1d339f396f0]
class Message--><g id="elem_Message"><rect codeLine="77" fill="#F1F1F1" height="129.4844" id="Message" rx="2.5" ry="2.5" style="stroke:#181818;stroke-width:0.5;" width="181" x="880" y="254.5"/><ellipse cx="934.75" cy="270.5" fill="#ADD1B2" rx="11" ry="11" style="stroke:#181818;stroke-width:1.0;"/><path d="M937.7188,276.1406 Q937.1406,276.4375 936.5,276.5781 Q935.8594,276.7344 935.1563,276.7344 Q932.6563,276.7344 931.3281,275.0938 Q930.0156,273.4375 930.0156,270.3125 Q930.0156,267.1875 931.3281,265.5313 Q932.6563,263.875 935.1563,263.875 Q935.8594,263.875 936.5,264.0313 Q937.1563,264.1875 937.7188,264.4844 L937.7188,267.2031 Q937.0938,266.625 936.5,266.3594 Q935.9063,266.0781 935.2813,266.0781 Q933.9375,266.0781 933.25,267.1563 Q932.5625,268.2188 932.5625,270.3125 Q932.5625,272.4063 933.25,273.4844 Q933.9375,274.5469 935.2813,274.5469 Q935.9063,274.5469 936.5,274.2813 Q937.0938,274 937.7188,273.4219 L937.7188,276.1406 Z " fill="#000000"/><text fill="#000000" font-family="sans-serif" font-size="14" lengthAdjust="spacing" textLength="63" x="955.25" y="275.3467">Message</text><line style="stroke:#181818;stroke-width:0.5;" x1="881" x2="1060" y1="286.5" y2="286.5"/><ellipse cx="891" cy="300.1484" fill="none" rx="3" ry="3" style="stroke:#038048;stroke-width:1.0;"/><text fill="#000000" font-family="sans-serif" font-size="14" lengthAdjust="spacing" textLength="38" x="900" y="303.4951">id: int</text><ellipse cx="891" cy="316.4453" fill="none" rx="3" ry="3" style="stroke:#038048;stroke-width:1.0;"/><text fill="#000000" font-family="sans-serif" font-size="14" lengthAdjust="spacing" textLength="90" x="900" y="319.792">sender: User</text><ellipse cx="891" cy="332.7422" fill="none" rx="3" ry="3" style="stroke:#038048;stroke-width:1.0;"/><text fill="#000000" font-family="sans-serif" font-size="14" lengthAdjust="spacing" textLength="96" x="900" y="336.0889">receiver: User</text><ellipse cx="891" cy="349.0391" fill="none" rx="3" ry="3" style="stroke:#038048;stroke-width:1.0;"/><text fill="#000000" font-family="sans-serif" font-size="14" lengthAdjust="spacing" textLength="102" x="900" y="352.3857">content: string</text><ellipse cx="891" cy="365.3359" fill="none" rx="3" ry="3" style="stroke:#038048;stroke-width:1.0;"/><text fill="#000000" font-family="sans-serif" font-size="14" lengthAdjust="spacing" textLength="155" x="900" y="368.6826">created_at: timestamp</text><line style="stroke:#181818;stroke-width:0.5;" x1="881" x2="1060" y1="375.9844" y2="375.9844"/></g><!--MD5=[70c37dc9bfbc8656942103c36f1181e4]
link User to Role--><g id="link_User_Role"><path codeLine="85" d="M552.38,89.91 C446.09,95.13 271,116.89 147.5,199 C119.83,217.4 98.43,248.26 84.16,273.94 " fill="none" id="User-to-Role" style="stroke:#181818;stroke-width:1.0;"/><polygon fill="#181818" points="81.76,278.35,89.5894,272.3751,84.1603,273.9638,82.5715,268.5346,81.76,278.35" style="stroke:#181818;stroke-width:1.0;"/><text fill="#000000" font-family="sans-serif" font-size="13" lengthAdjust="spacing" textLength="8" x="536.6408" y="86.5336">1</text><text fill="#000000" font-family="sans-serif" font-size="13" lengthAdjust="spacing" textLength="24" x="58.7968" y="267.4867">0..1</text></g><!--MD5=[9a733f9a77fef04327aa855b38589542]
link User to ActionLog--><g id="link_User_ActionLog"><path codeLine="86" d="M683.62,169.09 C697.49,198.23 712.92,230.65 725.84,257.78 " fill="none" id="User-to-ActionLog" style="stroke:#181818;stroke-width:1.0;"/><polygon fill="#181818" points="728.05,262.43,727.8041,252.5842,725.9059,257.9131,720.577,256.0148,728.05,262.43" style="stroke:#181818;stroke-width:1.0;"/><text fill="#000000" font-family="sans-serif" font-size="13" lengthAdjust="spacing" textLength="8" x="678.6588" y="189.0494">1</text><text fill="#000000" font-family="sans-serif" font-size="13" lengthAdjust="spacing" textLength="23" x="700.1877" y="251.2844">0..*</text></g><!--MD5=[e8a44440e7d883fedaa906df2c0e3d75]
link User to Message--><g id="link_User_Message"><path codeLine="87" d="M738.63,154.62 C781.7,184.97 832.76,220.95 876,251.41 " fill="none" id="User-to-Message" style="stroke:#181818;stroke-width:1.0;"/><polygon fill="#181818" points="880.16,254.34,875.1163,245.8806,876.076,251.4555,870.5011,252.4151,880.16,254.34" style="stroke:#181818;stroke-width:1.0;"/><text fill="#000000" font-family="sans-serif" font-size="13" lengthAdjust="spacing" textLength="44" x="819.5" y="212.0669">sender</text><text fill="#000000" font-family="sans-serif" font-size="13" lengthAdjust="spacing" textLength="8" x="746.37" y="156.4002">1</text><text fill="#000000" font-family="sans-serif" font-size="13" lengthAdjust="spacing" textLength="23" x="849.0446" y="245.6426">0..*</text></g><!--MD5=[e8a44440e7d883fedaa906df2c0e3d75]
link User to Message--><g id="link_User_Message"><path codeLine="88" d="M738.53,123.29 C781.79,141.84 832.4,167.46 872.5,199 C890.98,213.54 908.32,232.11 923.12,250.24 " fill="none" id="User-to-Message-1" style="stroke:#181818;stroke-width:1.0;"/><polygon fill="#181818" points="926.44,254.35,923.9073,244.8324,923.3026,250.4568,917.6782,249.8522,926.44,254.35" style="stroke:#181818;stroke-width:1.0;"/><text fill="#000000" font-family="sans-serif" font-size="13" lengthAdjust="spacing" textLength="51" x="891.5" y="212.0669">receiver</text><text fill="#000000" font-family="sans-serif" font-size="13" lengthAdjust="spacing" textLength="8" x="746.5653" y="122.6605">1</text><text fill="#000000" font-family="sans-serif" font-size="13" lengthAdjust="spacing" textLength="23" x="897.3631" y="243.5063">0..*</text></g><!--MD5=[a6d2a5af26f22c316b3c030e8bd9b8f9]
link User to Player--><g id="link_User_Player"><path codeLine="89" d="M552.32,92.76 C448.8,102.52 286.06,135.71 208.5,246 C164.52,308.53 170.71,397 185.03,463.61 " fill="none" id="User-to-Player" style="stroke:#181818;stroke-width:1.0;"/><polygon fill="#181818" points="186.17,468.77,188.1493,459.1221,185.099,463.8861,180.335,460.8357,186.17,468.77" style="stroke:#181818;stroke-width:1.0;"/><text fill="#000000" font-family="sans-serif" font-size="13" lengthAdjust="spacing" textLength="8" x="536.576" y="105.806">1</text><text fill="#000000" font-family="sans-serif" font-size="13" lengthAdjust="spacing" textLength="24" x="158.913" y="457.8164">0..1</text></g><!--MD5=[3c85ed1c74d2fd8e0488dff9cf058b2b]
link User to Team--><g id="link_User_Team"><path codeLine="90" d="M552.08,154.62 C508.88,184.97 457.66,220.95 414.29,251.41 " fill="none" id="User-to-Team" style="stroke:#181818;stroke-width:1.0;"/><polygon fill="#181818" points="410.12,254.34,419.7834,252.4376,414.2108,251.465,415.1834,245.8924,410.12,254.34" style="stroke:#181818;stroke-width:1.0;"/><text fill="#000000" font-family="sans-serif" font-size="13" lengthAdjust="spacing" textLength="38" x="483.5" y="212.0669">coach</text><text fill="#000000" font-family="sans-serif" font-size="13" lengthAdjust="spacing" textLength="8" x="536.6213" y="156.2154">1</text><text fill="#000000" font-family="sans-serif" font-size="13" lengthAdjust="spacing" textLength="24" x="394.7191" y="243.4952">0..1</text></g><!--MD5=[f6131654d5bae01bf523e6b09ccedc4c]
link Team to Player--><g id="link_Team_Player"><path codeLine="91" d="M291.09,383.51 C280.02,408.27 267.11,437.14 255.03,464.14 " fill="none" id="Team-to-Player" style="stroke:#181818;stroke-width:1.0;"/><polygon fill="#181818" points="252.94,468.81,260.2715,462.2336,254.9853,464.2475,252.9715,458.9612,252.94,468.81" style="stroke:#181818;stroke-width:1.0;"/><text fill="#000000" font-family="sans-serif" font-size="13" lengthAdjust="spacing" textLength="8" x="279.3426" y="403.8827">1</text><text fill="#000000" font-family="sans-serif" font-size="13" lengthAdjust="spacing" textLength="23" x="232.2538" y="457.8597">0..*</text></g><!--MD5=[a739cbbf30ad9ca98b69a3d6b11b3c4f]
link Tournament to Match--><g id="link_Tournament_Match"><path codeLine="92" d="M529.9,392.09 C526.72,407.88 522.39,424.27 516.5,439 C512.05,450.13 506.48,461.32 500.39,472.14 " fill="none" id="Tournament-to-Match" style="stroke:#181818;stroke-width:1.0;"/><polygon fill="#181818" points="497.74,476.76,505.6823,470.936,500.2238,472.4205,498.7392,466.962,497.74,476.76" style="stroke:#181818;stroke-width:1.0;"/><text fill="#000000" font-family="sans-serif" font-size="13" lengthAdjust="spacing" textLength="8" x="520.6991" y="411.8549">1</text><text fill="#000000" font-family="sans-serif" font-size="13" lengthAdjust="spacing" textLength="23" x="478.9028" y="465.9259">0..*</text></g><!--MD5=[0298958ccae57a39411b30d75d3e8adb]
link Team to Match--><g id="link_Team_Match"><path codeLine="93" d="M308.15,383.64 C307.41,402.1 309.2,421.89 316.5,439 C321.57,450.9 328.5,462.17 336.49,472.68 " fill="none" id="Team-to-Match" style="stroke:#181818;stroke-width:1.0;"/><polygon fill="#181818" points="339.73,476.83,337.3164,467.2815,336.6415,472.8979,331.0251,472.223,339.73,476.83" style="stroke:#181818;stroke-width:1.0;"/><text fill="#000000" font-family="sans-serif" font-size="13" lengthAdjust="spacing" textLength="78" x="317.5" y="435.0669">home_team</text><text fill="#000000" font-family="sans-serif" font-size="13" lengthAdjust="spacing" textLength="8" x="298.3752" y="404.0278">1</text><text fill="#000000" font-family="sans-serif" font-size="13" lengthAdjust="spacing" textLength="23" x="307.8632" y="466.8332">0..*</text></g><!--MD5=[0298958ccae57a39411b30d75d3e8adb]
link Team to Match--><g id="link_Team_Match"><path codeLine="94" d="M376.03,383.52 C385.09,395.73 393.71,408.84 400.5,422 C408.52,437.56 415.11,455 420.44,472.05 " fill="none" id="Team-to-Match-1" style="stroke:#181818;stroke-width:1.0;"/><polygon fill="#181818" points="421.91,476.84,423.0884,467.0619,420.4406,472.0608,415.4417,469.413,421.91,476.84" style="stroke:#181818;stroke-width:1.0;"/><text fill="#000000" font-family="sans-serif" font-size="13" lengthAdjust="spacing" textLength="73" x="408.5" y="435.0669">away_team</text><text fill="#000000" font-family="sans-serif" font-size="13" lengthAdjust="spacing" textLength="8" x="374.1038" y="403.8939">1</text><text fill="#000000" font-family="sans-serif" font-size="13" lengthAdjust="spacing" textLength="23" x="396.3192" y="466.013">0..*</text></g><!--MD5=[9b34889314dc356891aef66f51eaea3a]
link Player to PlayerStatistics--><g id="link_Player_PlayerStatistics"><path codeLine="95" d="M213.5,647.3 C213.5,665.65 213.5,684.86 213.5,702.77 " fill="none" id="Player-to-PlayerStatistics" style="stroke:#181818;stroke-width:1.0;"/><polygon fill="#181818" points="213.5,707.79,217.5,698.79,213.5,702.79,209.5,698.79,213.5,707.79" style="stroke:#181818;stroke-width:1.0;"/><text fill="#000000" font-family="sans-serif" font-size="13" lengthAdjust="spacing" textLength="8" x="205.1688" y="667.3731">1</text><text fill="#000000" font-family="sans-serif" font-size="13" lengthAdjust="spacing" textLength="24" x="188.3188" y="696.9293">0..1</text></g><!--MD5=[0079837541c11b52eaee09b3a21ae17f]
link Player to PlayerMatch--><g id="link_Player_PlayerMatch"><path codeLine="96" d="M295.8,647.3 C318.69,671.85 342.99,697.92 363.94,720.4 " fill="none" id="Player-to-PlayerMatch" style="stroke:#181818;stroke-width:1.0;"/><polygon fill="#181818" points="367.55,724.26,364.3321,714.9517,364.1379,720.6052,358.4844,720.411,367.55,724.26" style="stroke:#181818;stroke-width:1.0;"/><text fill="#000000" font-family="sans-serif" font-size="13" lengthAdjust="spacing" textLength="8" x="294.2842" y="667.3731">1</text><text fill="#000000" font-family="sans-serif" font-size="13" lengthAdjust="spacing" textLength="23" x="336.817" y="713.4943">0..*</text></g><!--MD5=[18db8ae5e0ea005fdb87736765db6800]
link Match to PlayerMatch--><g id="link_Match_PlayerMatch"><path codeLine="97" d="M432.25,639.1 C429.86,665.51 427.24,694.43 425.01,719.16 " fill="none" id="Match-to-PlayerMatch" style="stroke:#181818;stroke-width:1.0;"/><polygon fill="#181818" points="424.53,724.37,429.3351,715.7728,424.9865,719.3909,421.3685,715.0424,424.53,724.37" style="stroke:#181818;stroke-width:1.0;"/><text fill="#000000" font-family="sans-serif" font-size="13" lengthAdjust="spacing" textLength="8" x="423.248" y="659.0603">1</text><text fill="#000000" font-family="sans-serif" font-size="13" lengthAdjust="spacing" textLength="23" x="400.7415" y="713.6177">0..*</text></g><!--MD5=[15bed38439f32ab575e6816e6fe7125e]
@startuml
class User {
  +id: int
  +username: string
  +email: string
  +password: string
  +role: Role
  +created_at: timestamp
  +updated_at: timestamp
}

class Role {
  +id: int
  +name: string
}

class Team {
  +id: int
  +name: string
  +coach: User
  +created_at: timestamp
  +updated_at: timestamp
}

class Player {
  +id: int
  +user: User
  +team: Team
  +position: string
  +jersey_number: int
  +goals: int
  +assists: int
  +created_at: timestamp
}

class Tournament {
  +id: int
  +name: string
  +category: string
  +start_date: date
  +end_date: date
  +created_at: timestamp
}

class Match {
  +id: int
  +home_team: Team
  +away_team: Team
  +tournament: Tournament
  +date: datetime
  +result: string
  +created_at: timestamp
}

class PlayerMatch {
  +player: Player
  +match: Match
  +goals: int
  +assists: int
}

class PlayerStatistics {
  +id: int
  +player: Player
  +matches_played: int
  +goals_scored: int
  +assists: int
  +created_at: timestamp
}

class ActionLog {
  +id: int
  +user: User
  +action_type: string
  +created_at: timestamp
}

class Message {
  +id: int
  +sender: User
  +receiver: User
  +content: string
  +created_at: timestamp
}

User "1" - -> "0..1" Role
User "1" - -> "0..*" ActionLog
User "1" - -> "0..*" Message : sender
User "1" - -> "0..*" Message : receiver
User "1" - -> "0..1" Player
User "1" - -> "0..1" Team : coach
Team "1" - -> "0..*" Player
Tournament "1" - -> "0..*" Match
Team "1" - -> "0..*" Match : home_team
Team "1" - -> "0..*" Match : away_team
Player "1" - -> "0..1" PlayerStatistics
Player "1" - -> "0..*" PlayerMatch
Match "1" - -> "0..*" PlayerMatch
@enduml

PlantUML version 1.2022.7(Mon Aug 22 17:01:30 UTC 2022)
(GPL source distribution)
Java Runtime: OpenJDK Runtime Environment
JVM: OpenJDK 64-Bit Server VM
Default Encoding: UTF-8
Language: en
Country: null
--></g></svg>