<?xml version="1.0" encoding="UTF-8" standalone="no"?><svg xmlns="http://www.w3.org/2000/svg" xmlns:xlink="http://www.w3.org/1999/xlink" contentStyleType="text/css" height="1083px" preserveAspectRatio="none" style="width:867px;height:1083px;background:#FFFFFF;" version="1.1" viewBox="0 0 867 1083" width="867px" zoomAndPan="magnify"><defs/><g><!--MD5=[3fd616f346a44cd59a91eb10b19e157c]
class User--><g id="elem_User"><rect codeLine="1" fill="#F1F1F1" height="145.7813" id="User" rx="2.5" ry="2.5" style="stroke:#181818;stroke-width:0.5;" width="143" x="272" y="7"/><ellipse cx="323.25" cy="23" fill="#ADD1B2" rx="11" ry="11" style="stroke:#181818;stroke-width:1.0;"/><path d="M326.2188,28.6406 Q325.6406,28.9375 325,29.0781 Q324.3594,29.2344 323.6563,29.2344 Q321.1563,29.2344 319.8281,27.5938 Q318.5156,25.9375 318.5156,22.8125 Q318.5156,19.6875 319.8281,18.0313 Q321.1563,16.375 323.6563,16.375 Q324.3594,16.375 325,16.5313 Q325.6563,16.6875 326.2188,16.9844 L326.2188,19.7031 Q325.5938,19.125 325,18.8594 Q324.4063,18.5781 323.7813,18.5781 Q322.4375,18.5781 321.75,19.6563 Q321.0625,20.7188 321.0625,22.8125 Q321.0625,24.9063 321.75,25.9844 Q322.4375,27.0469 323.7813,27.0469 Q324.4063,27.0469 325,26.7813 Q325.5938,26.5 326.2188,25.9219 L326.2188,28.6406 Z " fill="#000000"/><text fill="#000000" font-family="sans-serif" font-size="14" lengthAdjust="spacing" textLength="32" x="343.75" y="27.8467">User</text><line style="stroke:#181818;stroke-width:0.5;" x1="273" x2="414" y1="39" y2="39"/><ellipse cx="283" cy="52.6484" fill="none" rx="3" ry="3" style="stroke:#038048;stroke-width:1.0;"/><text fill="#000000" font-family="sans-serif" font-size="14" lengthAdjust="spacing" textLength="38" x="292" y="55.9951">id: int</text><ellipse cx="283" cy="68.9453" fill="none" rx="3" ry="3" style="stroke:#038048;stroke-width:1.0;"/><text fill="#000000" font-family="sans-serif" font-size="14" lengthAdjust="spacing" textLength="84" x="292" y="72.292">email: string</text><ellipse cx="283" cy="85.2422" fill="none" rx="3" ry="3" style="stroke:#038048;stroke-width:1.0;"/><text fill="#000000" font-family="sans-serif" font-size="14" lengthAdjust="spacing" textLength="115" x="292" y="88.5889">password: string</text><ellipse cx="283" cy="101.5391" fill="none" rx="3" ry="3" style="stroke:#038048;stroke-width:1.0;"/><text fill="#000000" font-family="sans-serif" font-size="14" lengthAdjust="spacing" textLength="66" x="292" y="104.8857">role: Role</text><ellipse cx="283" cy="117.8359" fill="none" rx="3" ry="3" style="stroke:#038048;stroke-width:1.0;"/><text fill="#000000" font-family="sans-serif" font-size="14" lengthAdjust="spacing" textLength="112" x="292" y="121.1826">created_at: time</text><ellipse cx="283" cy="134.1328" fill="none" rx="3" ry="3" style="stroke:#038048;stroke-width:1.0;"/><text fill="#000000" font-family="sans-serif" font-size="14" lengthAdjust="spacing" textLength="117" x="292" y="137.4795">updated_at: time</text><line style="stroke:#181818;stroke-width:0.5;" x1="273" x2="414" y1="144.7813" y2="144.7813"/></g><!--MD5=[7dde244f1b93ccf44d7f9e836b89e039]
class UserProfile--><g id="elem_UserProfile"><rect codeLine="10" fill="#F1F1F1" height="113.1875" id="UserProfile" rx="2.5" ry="2.5" style="stroke:#181818;stroke-width:0.5;" width="135" x="7" y="238"/><ellipse cx="35.05" cy="254" fill="#ADD1B2" rx="11" ry="11" style="stroke:#181818;stroke-width:1.0;"/><path d="M38.0188,259.6406 Q37.4406,259.9375 36.8,260.0781 Q36.1594,260.2344 35.4563,260.2344 Q32.9563,260.2344 31.6281,258.5938 Q30.3156,256.9375 30.3156,253.8125 Q30.3156,250.6875 31.6281,249.0313 Q32.9563,247.375 35.4563,247.375 Q36.1594,247.375 36.8,247.5313 Q37.4563,247.6875 38.0188,247.9844 L38.0188,250.7031 Q37.3938,250.125 36.8,249.8594 Q36.2063,249.5781 35.5813,249.5781 Q34.2375,249.5781 33.55,250.6563 Q32.8625,251.7188 32.8625,253.8125 Q32.8625,255.9063 33.55,256.9844 Q34.2375,258.0469 35.5813,258.0469 Q36.2063,258.0469 36.8,257.7813 Q37.3938,257.5 38.0188,256.9219 L38.0188,259.6406 Z " fill="#000000"/><text fill="#000000" font-family="sans-serif" font-size="14" lengthAdjust="spacing" textLength="74" x="51.95" y="258.8467">UserProfile</text><line style="stroke:#181818;stroke-width:0.5;" x1="8" x2="141" y1="270" y2="270"/><ellipse cx="18" cy="283.6484" fill="none" rx="3" ry="3" style="stroke:#038048;stroke-width:1.0;"/><text fill="#000000" font-family="sans-serif" font-size="14" lengthAdjust="spacing" textLength="38" x="27" y="286.9951">id: int</text><ellipse cx="18" cy="299.9453" fill="none" rx="3" ry="3" style="stroke:#038048;stroke-width:1.0;"/><text fill="#000000" font-family="sans-serif" font-size="14" lengthAdjust="spacing" textLength="83" x="27" y="303.292">user: userId</text><ellipse cx="18" cy="316.2422" fill="none" rx="3" ry="3" style="stroke:#038048;stroke-width:1.0;"/><text fill="#000000" font-family="sans-serif" font-size="14" lengthAdjust="spacing" textLength="87" x="27" y="319.5889">name: string</text><ellipse cx="18" cy="332.5391" fill="none" rx="3" ry="3" style="stroke:#038048;stroke-width:1.0;"/><text fill="#000000" font-family="sans-serif" font-size="14" lengthAdjust="spacing" textLength="109" x="27" y="335.8857">surname: string</text><line style="stroke:#181818;stroke-width:0.5;" x1="8" x2="141" y1="343.1875" y2="343.1875"/></g><!--MD5=[a3638c1e5b65d287ecad7f06f5c0f212]
class Role--><g id="elem_Role"><rect codeLine="17" fill="#F1F1F1" height="80.5938" id="Role" rx="2.5" ry="2.5" style="stroke:#181818;stroke-width:0.5;" width="113" x="177" y="254"/><ellipse cx="214.5" cy="270" fill="#ADD1B2" rx="11" ry="11" style="stroke:#181818;stroke-width:1.0;"/><path d="M217.4688,275.6406 Q216.8906,275.9375 216.25,276.0781 Q215.6094,276.2344 214.9063,276.2344 Q212.4063,276.2344 211.0781,274.5938 Q209.7656,272.9375 209.7656,269.8125 Q209.7656,266.6875 211.0781,265.0313 Q212.4063,263.375 214.9063,263.375 Q215.6094,263.375 216.25,263.5313 Q216.9063,263.6875 217.4688,263.9844 L217.4688,266.7031 Q216.8438,266.125 216.25,265.8594 Q215.6563,265.5781 215.0313,265.5781 Q213.6875,265.5781 213,266.6563 Q212.3125,267.7188 212.3125,269.8125 Q212.3125,271.9063 213,272.9844 Q213.6875,274.0469 215.0313,274.0469 Q215.6563,274.0469 216.25,273.7813 Q216.8438,273.5 217.4688,272.9219 L217.4688,275.6406 Z " fill="#000000"/><text fill="#000000" font-family="sans-serif" font-size="14" lengthAdjust="spacing" textLength="31" x="233.5" y="274.8467">Role</text><line style="stroke:#181818;stroke-width:0.5;" x1="178" x2="289" y1="286" y2="286"/><ellipse cx="188" cy="299.6484" fill="none" rx="3" ry="3" style="stroke:#038048;stroke-width:1.0;"/><text fill="#000000" font-family="sans-serif" font-size="14" lengthAdjust="spacing" textLength="38" x="197" y="302.9951">id: int</text><ellipse cx="188" cy="315.9453" fill="none" rx="3" ry="3" style="stroke:#038048;stroke-width:1.0;"/><text fill="#000000" font-family="sans-serif" font-size="14" lengthAdjust="spacing" textLength="87" x="197" y="319.292">name: string</text><line style="stroke:#181818;stroke-width:0.5;" x1="178" x2="289" y1="326.5938" y2="326.5938"/></g><!--MD5=[dfb0845b8492ffe07b1ce50e003034d7]
class Team--><g id="elem_Team"><rect codeLine="22" fill="#F1F1F1" height="129.4844" id="Team" rx="2.5" ry="2.5" style="stroke:#181818;stroke-width:0.5;" width="143" x="397" y="230"/><ellipse cx="444.75" cy="246" fill="#ADD1B2" rx="11" ry="11" style="stroke:#181818;stroke-width:1.0;"/><path d="M447.7188,251.6406 Q447.1406,251.9375 446.5,252.0781 Q445.8594,252.2344 445.1563,252.2344 Q442.6563,252.2344 441.3281,250.5938 Q440.0156,248.9375 440.0156,245.8125 Q440.0156,242.6875 441.3281,241.0313 Q442.6563,239.375 445.1563,239.375 Q445.8594,239.375 446.5,239.5313 Q447.1563,239.6875 447.7188,239.9844 L447.7188,242.7031 Q447.0938,242.125 446.5,241.8594 Q445.9063,241.5781 445.2813,241.5781 Q443.9375,241.5781 443.25,242.6563 Q442.5625,243.7188 442.5625,245.8125 Q442.5625,247.9063 443.25,248.9844 Q443.9375,250.0469 445.2813,250.0469 Q445.9063,250.0469 446.5,249.7813 Q447.0938,249.5 447.7188,248.9219 L447.7188,251.6406 Z " fill="#000000"/><text fill="#000000" font-family="sans-serif" font-size="14" lengthAdjust="spacing" textLength="39" x="465.25" y="250.8467">Team</text><line style="stroke:#181818;stroke-width:0.5;" x1="398" x2="539" y1="262" y2="262"/><ellipse cx="408" cy="275.6484" fill="none" rx="3" ry="3" style="stroke:#038048;stroke-width:1.0;"/><text fill="#000000" font-family="sans-serif" font-size="14" lengthAdjust="spacing" textLength="38" x="417" y="278.9951">id: int</text><ellipse cx="408" cy="291.9453" fill="none" rx="3" ry="3" style="stroke:#038048;stroke-width:1.0;"/><text fill="#000000" font-family="sans-serif" font-size="14" lengthAdjust="spacing" textLength="87" x="417" y="295.292">name: string</text><ellipse cx="408" cy="308.2422" fill="none" rx="3" ry="3" style="stroke:#038048;stroke-width:1.0;"/><text fill="#000000" font-family="sans-serif" font-size="14" lengthAdjust="spacing" textLength="94" x="417" y="311.5889">coach: userId</text><ellipse cx="408" cy="324.5391" fill="none" rx="3" ry="3" style="stroke:#038048;stroke-width:1.0;"/><text fill="#000000" font-family="sans-serif" font-size="14" lengthAdjust="spacing" textLength="112" x="417" y="327.8857">created_at: time</text><ellipse cx="408" cy="340.8359" fill="none" rx="3" ry="3" style="stroke:#038048;stroke-width:1.0;"/><text fill="#000000" font-family="sans-serif" font-size="14" lengthAdjust="spacing" textLength="117" x="417" y="344.1826">updated_at: time</text><line style="stroke:#181818;stroke-width:0.5;" x1="398" x2="539" y1="351.4844" y2="351.4844"/></g><!--MD5=[2cb47ba637a0d19583e6199456f6ad0b]
class Player--><g id="elem_Player"><rect codeLine="30" fill="#F1F1F1" height="210.9688" id="Player" rx="2.5" ry="2.5" style="stroke:#181818;stroke-width:0.5;" width="154" x="255.5" y="420"/><ellipse cx="307.75" cy="436" fill="#ADD1B2" rx="11" ry="11" style="stroke:#181818;stroke-width:1.0;"/><path d="M310.7188,441.6406 Q310.1406,441.9375 309.5,442.0781 Q308.8594,442.2344 308.1563,442.2344 Q305.6563,442.2344 304.3281,440.5938 Q303.0156,438.9375 303.0156,435.8125 Q303.0156,432.6875 304.3281,431.0313 Q305.6563,429.375 308.1563,429.375 Q308.8594,429.375 309.5,429.5313 Q310.1563,429.6875 310.7188,429.9844 L310.7188,432.7031 Q310.0938,432.125 309.5,431.8594 Q308.9063,431.5781 308.2813,431.5781 Q306.9375,431.5781 306.25,432.6563 Q305.5625,433.7188 305.5625,435.8125 Q305.5625,437.9063 306.25,438.9844 Q306.9375,440.0469 308.2813,440.0469 Q308.9063,440.0469 309.5,439.7813 Q310.0938,439.5 310.7188,438.9219 L310.7188,441.6406 Z " fill="#000000"/><text fill="#000000" font-family="sans-serif" font-size="14" lengthAdjust="spacing" textLength="41" x="328.25" y="440.8467">Player</text><line style="stroke:#181818;stroke-width:0.5;" x1="256.5" x2="408.5" y1="452" y2="452"/><ellipse cx="266.5" cy="465.6484" fill="none" rx="3" ry="3" style="stroke:#038048;stroke-width:1.0;"/><text fill="#000000" font-family="sans-serif" font-size="14" lengthAdjust="spacing" textLength="38" x="275.5" y="468.9951">id: int</text><ellipse cx="266.5" cy="481.9453" fill="none" rx="3" ry="3" style="stroke:#038048;stroke-width:1.0;"/><text fill="#000000" font-family="sans-serif" font-size="14" lengthAdjust="spacing" textLength="83" x="275.5" y="485.292">user: userId</text><ellipse cx="266.5" cy="498.2422" fill="none" rx="3" ry="3" style="stroke:#038048;stroke-width:1.0;"/><text fill="#000000" font-family="sans-serif" font-size="14" lengthAdjust="spacing" textLength="91" x="275.5" y="501.5889">team: teamId</text><ellipse cx="266.5" cy="514.5391" fill="none" rx="3" ry="3" style="stroke:#038048;stroke-width:1.0;"/><text fill="#000000" font-family="sans-serif" font-size="14" lengthAdjust="spacing" textLength="103" x="275.5" y="517.8857">position: string</text><ellipse cx="266.5" cy="530.8359" fill="none" rx="3" ry="3" style="stroke:#038048;stroke-width:1.0;"/><text fill="#000000" font-family="sans-serif" font-size="14" lengthAdjust="spacing" textLength="128" x="275.5" y="534.1826">jersey_number: int</text><ellipse cx="266.5" cy="547.1328" fill="none" rx="3" ry="3" style="stroke:#038048;stroke-width:1.0;"/><text fill="#000000" font-family="sans-serif" font-size="14" lengthAdjust="spacing" textLength="69" x="275.5" y="550.4795">points: int</text><ellipse cx="266.5" cy="563.4297" fill="none" rx="3" ry="3" style="stroke:#038048;stroke-width:1.0;"/><text fill="#000000" font-family="sans-serif" font-size="14" lengthAdjust="spacing" textLength="74" x="275.5" y="566.7764">assists: int</text><ellipse cx="266.5" cy="579.7266" fill="none" rx="3" ry="3" style="stroke:#038048;stroke-width:1.0;"/><text fill="#000000" font-family="sans-serif" font-size="14" lengthAdjust="spacing" textLength="71" x="275.5" y="583.0732">blocks: int</text><ellipse cx="266.5" cy="596.0234" fill="none" rx="3" ry="3" style="stroke:#038048;stroke-width:1.0;"/><text fill="#000000" font-family="sans-serif" font-size="14" lengthAdjust="spacing" textLength="59" x="275.5" y="599.3701">aces: int</text><ellipse cx="266.5" cy="612.3203" fill="none" rx="3" ry="3" style="stroke:#038048;stroke-width:1.0;"/><text fill="#000000" font-family="sans-serif" font-size="14" lengthAdjust="spacing" textLength="112" x="275.5" y="615.667">created_at: time</text><line style="stroke:#181818;stroke-width:0.5;" x1="256.5" x2="408.5" y1="622.9688" y2="622.9688"/></g><!--MD5=[a4b4d324fd2684dbb9bd6a0eaf7882b2]
class Tournament--><g id="elem_Tournament"><rect codeLine="43" fill="#F1F1F1" height="145.7813" id="Tournament" rx="2.5" ry="2.5" style="stroke:#181818;stroke-width:0.5;" width="138" x="594.5" y="452.5"/><ellipse cx="618.95" cy="468.5" fill="#ADD1B2" rx="11" ry="11" style="stroke:#181818;stroke-width:1.0;"/><path d="M621.9188,474.1406 Q621.3406,474.4375 620.7,474.5781 Q620.0594,474.7344 619.3563,474.7344 Q616.8563,474.7344 615.5281,473.0938 Q614.2156,471.4375 614.2156,468.3125 Q614.2156,465.1875 615.5281,463.5313 Q616.8563,461.875 619.3563,461.875 Q620.0594,461.875 620.7,462.0313 Q621.3563,462.1875 621.9188,462.4844 L621.9188,465.2031 Q621.2938,464.625 620.7,464.3594 Q620.1063,464.0781 619.4813,464.0781 Q618.1375,464.0781 617.45,465.1563 Q616.7625,466.2188 616.7625,468.3125 Q616.7625,470.4063 617.45,471.4844 Q618.1375,472.5469 619.4813,472.5469 Q620.1063,472.5469 620.7,472.2813 Q621.2938,472 621.9188,471.4219 L621.9188,474.1406 Z " fill="#000000"/><text fill="#000000" font-family="sans-serif" font-size="14" lengthAdjust="spacing" textLength="85" x="635.05" y="473.3467">Tournament</text><line style="stroke:#181818;stroke-width:0.5;" x1="595.5" x2="731.5" y1="484.5" y2="484.5"/><ellipse cx="605.5" cy="498.1484" fill="none" rx="3" ry="3" style="stroke:#038048;stroke-width:1.0;"/><text fill="#000000" font-family="sans-serif" font-size="14" lengthAdjust="spacing" textLength="38" x="614.5" y="501.4951">id: int</text><ellipse cx="605.5" cy="514.4453" fill="none" rx="3" ry="3" style="stroke:#038048;stroke-width:1.0;"/><text fill="#000000" font-family="sans-serif" font-size="14" lengthAdjust="spacing" textLength="87" x="614.5" y="517.792">name: string</text><ellipse cx="605.5" cy="530.7422" fill="none" rx="3" ry="3" style="stroke:#038048;stroke-width:1.0;"/><text fill="#000000" font-family="sans-serif" font-size="14" lengthAdjust="spacing" textLength="108" x="614.5" y="534.0889">category: string</text><ellipse cx="605.5" cy="547.0391" fill="none" rx="3" ry="3" style="stroke:#038048;stroke-width:1.0;"/><text fill="#000000" font-family="sans-serif" font-size="14" lengthAdjust="spacing" textLength="109" x="614.5" y="550.3857">start_date: date</text><ellipse cx="605.5" cy="563.3359" fill="none" rx="3" ry="3" style="stroke:#038048;stroke-width:1.0;"/><text fill="#000000" font-family="sans-serif" font-size="14" lengthAdjust="spacing" textLength="105" x="614.5" y="566.6826">end_date: date</text><ellipse cx="605.5" cy="579.6328" fill="none" rx="3" ry="3" style="stroke:#038048;stroke-width:1.0;"/><text fill="#000000" font-family="sans-serif" font-size="14" lengthAdjust="spacing" textLength="112" x="614.5" y="582.9795">created_at: time</text><line style="stroke:#181818;stroke-width:0.5;" x1="595.5" x2="731.5" y1="590.2813" y2="590.2813"/></g><!--MD5=[5f0899136ed8f523b18ed05779c24112]
class Match--><g id="elem_Match"><rect codeLine="52" fill="#F1F1F1" height="162.0781" id="Match" rx="2.5" ry="2.5" style="stroke:#181818;stroke-width:0.5;" width="209" x="467" y="700"/><ellipse cx="546.25" cy="716" fill="#ADD1B2" rx="11" ry="11" style="stroke:#181818;stroke-width:1.0;"/><path d="M549.2188,721.6406 Q548.6406,721.9375 548,722.0781 Q547.3594,722.2344 546.6563,722.2344 Q544.1563,722.2344 542.8281,720.5938 Q541.5156,718.9375 541.5156,715.8125 Q541.5156,712.6875 542.8281,711.0313 Q544.1563,709.375 546.6563,709.375 Q547.3594,709.375 548,709.5313 Q548.6563,709.6875 549.2188,709.9844 L549.2188,712.7031 Q548.5938,712.125 548,711.8594 Q547.4063,711.5781 546.7813,711.5781 Q545.4375,711.5781 544.75,712.6563 Q544.0625,713.7188 544.0625,715.8125 Q544.0625,717.9063 544.75,718.9844 Q545.4375,720.0469 546.7813,720.0469 Q547.4063,720.0469 548,719.7813 Q548.5938,719.5 549.2188,718.9219 L549.2188,721.6406 Z " fill="#000000"/><text fill="#000000" font-family="sans-serif" font-size="14" lengthAdjust="spacing" textLength="42" x="566.75" y="720.8467">Match</text><line style="stroke:#181818;stroke-width:0.5;" x1="468" x2="675" y1="732" y2="732"/><ellipse cx="478" cy="745.6484" fill="none" rx="3" ry="3" style="stroke:#038048;stroke-width:1.0;"/><text fill="#000000" font-family="sans-serif" font-size="14" lengthAdjust="spacing" textLength="38" x="487" y="748.9951">id: int</text><ellipse cx="478" cy="761.9453" fill="none" rx="3" ry="3" style="stroke:#038048;stroke-width:1.0;"/><text fill="#000000" font-family="sans-serif" font-size="14" lengthAdjust="spacing" textLength="138" x="487" y="765.292">home_team: teamId</text><ellipse cx="478" cy="778.2422" fill="none" rx="3" ry="3" style="stroke:#038048;stroke-width:1.0;"/><text fill="#000000" font-family="sans-serif" font-size="14" lengthAdjust="spacing" textLength="132" x="487" y="781.5889">away_team: teamId</text><ellipse cx="478" cy="794.5391" fill="none" rx="3" ry="3" style="stroke:#038048;stroke-width:1.0;"/><text fill="#000000" font-family="sans-serif" font-size="14" lengthAdjust="spacing" textLength="183" x="487" y="797.8857">tournament: tournamentId</text><ellipse cx="478" cy="810.8359" fill="none" rx="3" ry="3" style="stroke:#038048;stroke-width:1.0;"/><text fill="#000000" font-family="sans-serif" font-size="14" lengthAdjust="spacing" textLength="101" x="487" y="814.1826">date: datetime</text><ellipse cx="478" cy="827.1328" fill="none" rx="3" ry="3" style="stroke:#038048;stroke-width:1.0;"/><text fill="#000000" font-family="sans-serif" font-size="14" lengthAdjust="spacing" textLength="87" x="487" y="830.4795">result: string</text><ellipse cx="478" cy="843.4297" fill="none" rx="3" ry="3" style="stroke:#038048;stroke-width:1.0;"/><text fill="#000000" font-family="sans-serif" font-size="14" lengthAdjust="spacing" textLength="112" x="487" y="846.7764">created_at: time</text><line style="stroke:#181818;stroke-width:0.5;" x1="468" x2="675" y1="854.0781" y2="854.0781"/></g><!--MD5=[97cf1a1ebfbea5b45ef064f4e6d9b694]
class PlayerMatch--><g id="elem_PlayerMatch"><rect codeLine="62" fill="#F1F1F1" height="145.7813" id="PlayerMatch" rx="2.5" ry="2.5" style="stroke:#181818;stroke-width:0.5;" width="133" x="168" y="931"/><ellipse cx="191.1" cy="947" fill="#ADD1B2" rx="11" ry="11" style="stroke:#181818;stroke-width:1.0;"/><path d="M194.0688,952.6406 Q193.4906,952.9375 192.85,953.0781 Q192.2094,953.2344 191.5063,953.2344 Q189.0063,953.2344 187.6781,951.5938 Q186.3656,949.9375 186.3656,946.8125 Q186.3656,943.6875 187.6781,942.0313 Q189.0063,940.375 191.5063,940.375 Q192.2094,940.375 192.85,940.5313 Q193.5063,940.6875 194.0688,940.9844 L194.0688,943.7031 Q193.4438,943.125 192.85,942.8594 Q192.2563,942.5781 191.6313,942.5781 Q190.2875,942.5781 189.6,943.6563 Q188.9125,944.7188 188.9125,946.8125 Q188.9125,948.9063 189.6,949.9844 Q190.2875,951.0469 191.6313,951.0469 Q192.2563,951.0469 192.85,950.7813 Q193.4438,950.5 194.0688,949.9219 L194.0688,952.6406 Z " fill="#000000"/><text fill="#000000" font-family="sans-serif" font-size="14" lengthAdjust="spacing" textLength="83" x="206.9" y="951.8467">PlayerMatch</text><line style="stroke:#181818;stroke-width:0.5;" x1="169" x2="300" y1="963" y2="963"/><ellipse cx="179" cy="976.6484" fill="none" rx="3" ry="3" style="stroke:#038048;stroke-width:1.0;"/><text fill="#000000" font-family="sans-serif" font-size="14" lengthAdjust="spacing" textLength="103" x="188" y="979.9951">player: playerId</text><ellipse cx="179" cy="992.9453" fill="none" rx="3" ry="3" style="stroke:#038048;stroke-width:1.0;"/><text fill="#000000" font-family="sans-serif" font-size="14" lengthAdjust="spacing" textLength="107" x="188" y="996.292">match: matchId</text><ellipse cx="179" cy="1009.2422" fill="none" rx="3" ry="3" style="stroke:#038048;stroke-width:1.0;"/><text fill="#000000" font-family="sans-serif" font-size="14" lengthAdjust="spacing" textLength="69" x="188" y="1012.5889">points: int</text><ellipse cx="179" cy="1025.5391" fill="none" rx="3" ry="3" style="stroke:#038048;stroke-width:1.0;"/><text fill="#000000" font-family="sans-serif" font-size="14" lengthAdjust="spacing" textLength="74" x="188" y="1028.8857">assists: int</text><ellipse cx="179" cy="1041.8359" fill="none" rx="3" ry="3" style="stroke:#038048;stroke-width:1.0;"/><text fill="#000000" font-family="sans-serif" font-size="14" lengthAdjust="spacing" textLength="71" x="188" y="1045.1826">blocks: int</text><ellipse cx="179" cy="1058.1328" fill="none" rx="3" ry="3" style="stroke:#038048;stroke-width:1.0;"/><text fill="#000000" font-family="sans-serif" font-size="14" lengthAdjust="spacing" textLength="59" x="188" y="1061.4795">aces: int</text><line style="stroke:#181818;stroke-width:0.5;" x1="169" x2="300" y1="1068.7813" y2="1068.7813"/></g><!--MD5=[f722b562e8a02532a8493b65cd362b58]
class PlayerStatistics--><g id="elem_PlayerStatistics"><rect codeLine="71" fill="#F1F1F1" height="178.375" id="PlayerStatistics" rx="2.5" ry="2.5" style="stroke:#181818;stroke-width:0.5;" width="164" x="267.5" y="692"/><ellipse cx="295.55" cy="708" fill="#ADD1B2" rx="11" ry="11" style="stroke:#181818;stroke-width:1.0;"/><path d="M298.5188,713.6406 Q297.9406,713.9375 297.3,714.0781 Q296.6594,714.2344 295.9563,714.2344 Q293.4563,714.2344 292.1281,712.5938 Q290.8156,710.9375 290.8156,707.8125 Q290.8156,704.6875 292.1281,703.0313 Q293.4563,701.375 295.9563,701.375 Q296.6594,701.375 297.3,701.5313 Q297.9563,701.6875 298.5188,701.9844 L298.5188,704.7031 Q297.8938,704.125 297.3,703.8594 Q296.7063,703.5781 296.0813,703.5781 Q294.7375,703.5781 294.05,704.6563 Q293.3625,705.7188 293.3625,707.8125 Q293.3625,709.9063 294.05,710.9844 Q294.7375,712.0469 296.0813,712.0469 Q296.7063,712.0469 297.3,711.7813 Q297.8938,711.5 298.5188,710.9219 L298.5188,713.6406 Z " fill="#000000"/><text fill="#000000" font-family="sans-serif" font-size="14" lengthAdjust="spacing" textLength="103" x="312.45" y="712.8467">PlayerStatistics</text><line style="stroke:#181818;stroke-width:0.5;" x1="268.5" x2="430.5" y1="724" y2="724"/><ellipse cx="278.5" cy="737.6484" fill="none" rx="3" ry="3" style="stroke:#038048;stroke-width:1.0;"/><text fill="#000000" font-family="sans-serif" font-size="14" lengthAdjust="spacing" textLength="38" x="287.5" y="740.9951">id: int</text><ellipse cx="278.5" cy="753.9453" fill="none" rx="3" ry="3" style="stroke:#038048;stroke-width:1.0;"/><text fill="#000000" font-family="sans-serif" font-size="14" lengthAdjust="spacing" textLength="103" x="287.5" y="757.292">player: playerId</text><ellipse cx="278.5" cy="770.2422" fill="none" rx="3" ry="3" style="stroke:#038048;stroke-width:1.0;"/><text fill="#000000" font-family="sans-serif" font-size="14" lengthAdjust="spacing" textLength="138" x="287.5" y="773.5889">matches_played: int</text><ellipse cx="278.5" cy="786.5391" fill="none" rx="3" ry="3" style="stroke:#038048;stroke-width:1.0;"/><text fill="#000000" font-family="sans-serif" font-size="14" lengthAdjust="spacing" textLength="124" x="287.5" y="789.8857">points_scored: int</text><ellipse cx="278.5" cy="802.8359" fill="none" rx="3" ry="3" style="stroke:#038048;stroke-width:1.0;"/><text fill="#000000" font-family="sans-serif" font-size="14" lengthAdjust="spacing" textLength="74" x="287.5" y="806.1826">assists: int</text><ellipse cx="278.5" cy="819.1328" fill="none" rx="3" ry="3" style="stroke:#038048;stroke-width:1.0;"/><text fill="#000000" font-family="sans-serif" font-size="14" lengthAdjust="spacing" textLength="71" x="287.5" y="822.4795">blocks: int</text><ellipse cx="278.5" cy="835.4297" fill="none" rx="3" ry="3" style="stroke:#038048;stroke-width:1.0;"/><text fill="#000000" font-family="sans-serif" font-size="14" lengthAdjust="spacing" textLength="59" x="287.5" y="838.7764">aces: int</text><ellipse cx="278.5" cy="851.7266" fill="none" rx="3" ry="3" style="stroke:#038048;stroke-width:1.0;"/><text fill="#000000" font-family="sans-serif" font-size="14" lengthAdjust="spacing" textLength="112" x="287.5" y="855.0732">created_at: time</text><line style="stroke:#181818;stroke-width:0.5;" x1="268.5" x2="430.5" y1="862.375" y2="862.375"/></g><!--MD5=[7b1fe61636788f4cc8d26c03effb0cc2]
class ActionLog--><g id="elem_ActionLog"><rect codeLine="82" fill="#F1F1F1" height="113.1875" id="ActionLog" rx="2.5" ry="2.5" style="stroke:#181818;stroke-width:0.5;" width="153" x="575" y="238"/><ellipse cx="613.85" cy="254" fill="#ADD1B2" rx="11" ry="11" style="stroke:#181818;stroke-width:1.0;"/><path d="M616.8188,259.6406 Q616.2406,259.9375 615.6,260.0781 Q614.9594,260.2344 614.2563,260.2344 Q611.7563,260.2344 610.4281,258.5938 Q609.1156,256.9375 609.1156,253.8125 Q609.1156,250.6875 610.4281,249.0313 Q611.7563,247.375 614.2563,247.375 Q614.9594,247.375 615.6,247.5313 Q616.2563,247.6875 616.8188,247.9844 L616.8188,250.7031 Q616.1938,250.125 615.6,249.8594 Q615.0063,249.5781 614.3813,249.5781 Q613.0375,249.5781 612.35,250.6563 Q611.6625,251.7188 611.6625,253.8125 Q611.6625,255.9063 612.35,256.9844 Q613.0375,258.0469 614.3813,258.0469 Q615.0063,258.0469 615.6,257.7813 Q616.1938,257.5 616.8188,256.9219 L616.8188,259.6406 Z " fill="#000000"/><text fill="#000000" font-family="sans-serif" font-size="14" lengthAdjust="spacing" textLength="68" x="633.15" y="258.8467">ActionLog</text><line style="stroke:#181818;stroke-width:0.5;" x1="576" x2="727" y1="270" y2="270"/><ellipse cx="586" cy="283.6484" fill="none" rx="3" ry="3" style="stroke:#038048;stroke-width:1.0;"/><text fill="#000000" font-family="sans-serif" font-size="14" lengthAdjust="spacing" textLength="38" x="595" y="286.9951">id: int</text><ellipse cx="586" cy="299.9453" fill="none" rx="3" ry="3" style="stroke:#038048;stroke-width:1.0;"/><text fill="#000000" font-family="sans-serif" font-size="14" lengthAdjust="spacing" textLength="83" x="595" y="303.292">user: userId</text><ellipse cx="586" cy="316.2422" fill="none" rx="3" ry="3" style="stroke:#038048;stroke-width:1.0;"/><text fill="#000000" font-family="sans-serif" font-size="14" lengthAdjust="spacing" textLength="127" x="595" y="319.5889">action_type: string</text><ellipse cx="586" cy="332.5391" fill="none" rx="3" ry="3" style="stroke:#038048;stroke-width:1.0;"/><text fill="#000000" font-family="sans-serif" font-size="14" lengthAdjust="spacing" textLength="112" x="595" y="335.8857">created_at: time</text><line style="stroke:#181818;stroke-width:0.5;" x1="576" x2="727" y1="343.1875" y2="343.1875"/></g><!--MD5=[61961988f415acc41a34effefcb4db98]
link User to UserProfile--><g id="link_User_UserProfile"><path codeLine="90" d="M271.77,137.67 C233.02,168.27 185.32,205.95 146.53,236.6 " fill="none" id="User-to-UserProfile" style="stroke:#181818;stroke-width:1.0;"/><polygon fill="#181818" points="142.33,239.92,151.8731,237.485,146.2551,236.8227,146.9174,231.2048,142.33,239.92" style="stroke:#181818;stroke-width:1.0;"/><text fill="#000000" font-family="sans-serif" font-size="13" lengthAdjust="spacing" textLength="8" x="255.9603" y="139.9288">1</text><text fill="#000000" font-family="sans-serif" font-size="13" lengthAdjust="spacing" textLength="24" x="149.9388" y="231.0673">0..1</text></g><!--MD5=[70c37dc9bfbc8656942103c36f1181e4]
link User to Role--><g id="link_User_Role"><path codeLine="91" d="M306.11,153.24 C289.62,185.09 270.78,221.49 256.42,249.23 " fill="none" id="User-to-Role" style="stroke:#181818;stroke-width:1.0;"/><polygon fill="#181818" points="253.97,253.95,261.6679,247.8065,256.2745,249.5127,254.5683,244.1193,253.97,253.95" style="stroke:#181818;stroke-width:1.0;"/><text fill="#000000" font-family="sans-serif" font-size="13" lengthAdjust="spacing" textLength="8" x="294.2944" y="172.7663">1</text><text fill="#000000" font-family="sans-serif" font-size="13" lengthAdjust="spacing" textLength="24" x="231.4258" y="242.8046">0..1</text></g><!--MD5=[9a733f9a77fef04327aa855b38589542]
link User to ActionLog--><g id="link_User_ActionLog"><path codeLine="92" d="M415.32,130.55 C461.83,162.64 522.47,204.47 570.66,237.72 " fill="none" id="User-to-ActionLog" style="stroke:#181818;stroke-width:1.0;"/><polygon fill="#181818" points="574.98,240.71,569.8495,232.303,570.8665,237.8677,565.3018,238.8846,574.98,240.71" style="stroke:#181818;stroke-width:1.0;"/><text fill="#000000" font-family="sans-serif" font-size="13" lengthAdjust="spacing" textLength="8" x="423.1389" y="132.0746">1</text><text fill="#000000" font-family="sans-serif" font-size="13" lengthAdjust="spacing" textLength="23" x="543.8657" y="232.1242">0..*</text></g><!--MD5=[a6d2a5af26f22c316b3c030e8bd9b8f9]
link User to Player--><g id="link_User_Player"><path codeLine="93" d="M341.71,153.24 C339.95,224.1 337.25,333.06 335.22,414.65 " fill="none" id="User-to-Player" style="stroke:#181818;stroke-width:1.0;"/><polygon fill="#181818" points="335.09,419.98,339.32,411.0858,335.2185,414.9817,331.3227,410.8802,335.09,419.98" style="stroke:#181818;stroke-width:1.0;"/><text fill="#000000" font-family="sans-serif" font-size="13" lengthAdjust="spacing" textLength="8" x="333.1762" y="172.7663">1</text><text fill="#000000" font-family="sans-serif" font-size="13" lengthAdjust="spacing" textLength="24" x="310.4284" y="409.1059">0..1</text></g><!--MD5=[3c85ed1c74d2fd8e0488dff9cf058b2b]
link User to Team--><g id="link_User_Team"><path codeLine="94" d="M385.99,153.24 C399.73,176.59 414.91,202.39 428.46,225.43 " fill="none" id="User-to-Team" style="stroke:#181818;stroke-width:1.0;"/><polygon fill="#181818" points="431.14,230,430.0401,220.2127,428.6118,225.6863,423.1382,224.2579,431.14,230" style="stroke:#181818;stroke-width:1.0;"/><text fill="#000000" font-family="sans-serif" font-size="13" lengthAdjust="spacing" textLength="38" x="414.5" y="196.0669">coach</text><text fill="#000000" font-family="sans-serif" font-size="13" lengthAdjust="spacing" textLength="8" x="381.5383" y="172.7663">1</text><text fill="#000000" font-family="sans-serif" font-size="13" lengthAdjust="spacing" textLength="24" x="401.4328" y="218.7216">0..1</text></g><!--MD5=[f6131654d5bae01bf523e6b09ccedc4c]
link Team to Player--><g id="link_Team_Player"><path codeLine="95" d="M430.62,359.29 C420.24,376.76 408.69,396.21 397.27,415.45 " fill="none" id="Team-to-Player" style="stroke:#181818;stroke-width:1.0;"/><polygon fill="#181818" points="394.68,419.81,402.7182,414.119,397.2357,415.5125,395.8422,410.03,394.68,419.81" style="stroke:#181818;stroke-width:1.0;"/><text fill="#000000" font-family="sans-serif" font-size="13" lengthAdjust="spacing" textLength="8" x="417.7776" y="379.6951">1</text><text fill="#000000" font-family="sans-serif" font-size="13" lengthAdjust="spacing" textLength="23" x="375.2434" y="408.924">0..*</text></g><!--MD5=[4dc88d593a9d14e3c5a4ac43ac108189]
link Player to Match--><g id="link_Player_Match"><path codeLine="96" d="M409.57,614.26 C424.01,630.29 439.09,646.76 453.5,662 C464.05,673.16 475.29,684.76 486.48,696.14 " fill="none" id="Player-to-Match" style="stroke:#181818;stroke-width:1.0;"/><polygon fill="#181818" points="490.27,699.98,486.7902,690.7664,486.756,696.4231,481.0992,696.3888,490.27,699.98" style="stroke:#181818;stroke-width:1.0;"/><text fill="#000000" font-family="sans-serif" font-size="13" lengthAdjust="spacing" textLength="7" x="417.5011" y="619.334">*</text><text fill="#000000" font-family="sans-serif" font-size="13" lengthAdjust="spacing" textLength="7" x="475.459" y="688.889">*</text></g><!--MD5=[a739cbbf30ad9ca98b69a3d6b11b3c4f]
link Tournament to Match--><g id="link_Tournament_Match"><path codeLine="97" d="M637.26,598.8 C626.42,628.67 613.77,663.52 602.48,694.63 " fill="none" id="Tournament-to-Match" style="stroke:#181818;stroke-width:1.0;"/><polygon fill="#181818" points="600.68,699.58,607.5027,692.4772,602.3807,694.8781,599.9797,689.7561,600.68,699.58" style="stroke:#181818;stroke-width:1.0;"/><text fill="#000000" font-family="sans-serif" font-size="13" lengthAdjust="spacing" textLength="8" x="626.4723" y="618.3318">1</text><text fill="#000000" font-family="sans-serif" font-size="13" lengthAdjust="spacing" textLength="23" x="579.1994" y="689.0077">0..*</text></g><!--MD5=[0298958ccae57a39411b30d75d3e8adb]
link Team to Match--><g id="link_Team_Match"><path codeLine="98" d="M467.01,359.21 C467.01,427.64 471.67,538.97 497.5,631 C503.56,652.59 512.75,674.78 522.61,695.23 " fill="none" id="Team-to-Match" style="stroke:#181818;stroke-width:1.0;"/><polygon fill="#181818" points="524.86,699.84,524.5006,689.9977,522.6639,695.3481,517.3136,693.5114,524.86,699.84" style="stroke:#181818;stroke-width:1.0;"/><text fill="#000000" font-family="sans-serif" font-size="13" lengthAdjust="spacing" textLength="78" x="498.5" y="530.0669">home_team</text><text fill="#000000" font-family="sans-serif" font-size="13" lengthAdjust="spacing" textLength="8" x="458.3752" y="379.6059">1</text><text fill="#000000" font-family="sans-serif" font-size="13" lengthAdjust="spacing" textLength="23" x="496.6819" y="689.013">0..*</text></g><!--MD5=[0298958ccae57a39411b30d75d3e8adb]
link Team to Match--><g id="link_Team_Match"><path codeLine="99" d="M540.18,349.44 C545.92,352.88 551.73,356.12 557.5,359 C637.99,399.17 697.33,347.43 750.5,420 C805.93,495.65 790.3,546.09 750.5,631 C735.13,663.8 708.59,691.89 680.58,714.56 " fill="none" id="Team-to-Match-1" style="stroke:#181818;stroke-width:1.0;"/><polygon fill="#181818" points="676.44,717.86,685.9733,715.3867,680.3527,714.747,680.9924,709.1264,676.44,717.86" style="stroke:#181818;stroke-width:1.0;"/><text fill="#000000" font-family="sans-serif" font-size="13" lengthAdjust="spacing" textLength="73" x="786.5" y="530.0669">away_team</text><text fill="#000000" font-family="sans-serif" font-size="13" lengthAdjust="spacing" textLength="8" x="547.9845" y="351.381">1</text><text fill="#000000" font-family="sans-serif" font-size="13" lengthAdjust="spacing" textLength="23" x="683.8994" y="710.4033">0..*</text></g><!--MD5=[9b34889314dc356891aef66f51eaea3a]
link Player to PlayerStatistics--><g id="link_Player_PlayerStatistics"><path codeLine="100" d="M339.51,631.07 C340.75,649.52 342.03,668.62 343.25,686.73 " fill="none" id="Player-to-PlayerStatistics" style="stroke:#181818;stroke-width:1.0;"/><polygon fill="#181818" points="343.59,691.82,346.9895,682.5764,343.2612,686.8308,339.0068,683.1025,343.59,691.82" style="stroke:#181818;stroke-width:1.0;"/><text fill="#000000" font-family="sans-serif" font-size="13" lengthAdjust="spacing" textLength="8" x="331.7216" y="651.0929">1</text><text fill="#000000" font-family="sans-serif" font-size="13" lengthAdjust="spacing" textLength="24" x="318.1068" y="680.8706">0..1</text></g><!--MD5=[0079837541c11b52eaee09b3a21ae17f]
link Player to PlayerMatch--><g id="link_Player_PlayerMatch"><path codeLine="101" d="M271.89,631.21 C262.88,650.86 254.84,671.63 249.5,692 C229.16,769.56 227.35,861.65 229.43,925.39 " fill="none" id="Player-to-PlayerMatch" style="stroke:#181818;stroke-width:1.0;"/><polygon fill="#181818" points="229.62,930.7,233.3093,921.5682,229.4487,925.7029,225.314,921.8423,229.62,930.7" style="stroke:#181818;stroke-width:1.0;"/><text fill="#000000" font-family="sans-serif" font-size="13" lengthAdjust="spacing" textLength="8" x="259.549" y="650.8887">1</text><text fill="#000000" font-family="sans-serif" font-size="13" lengthAdjust="spacing" textLength="23" x="205.0076" y="919.8304">0..*</text></g><!--MD5=[18db8ae5e0ea005fdb87736765db6800]
link Match to PlayerMatch--><g id="link_Match_PlayerMatch"><path codeLine="102" d="M466.81,857.59 C460.64,861.83 454.51,865.99 448.5,870 C401.54,901.34 347.54,934.89 305.53,960.45 " fill="none" id="Match-to-PlayerMatch" style="stroke:#181818;stroke-width:1.0;"/><polygon fill="#181818" points="301.24,963.05,311.0106,961.8111,305.5173,960.4607,306.8678,954.9674,301.24,963.05" style="stroke:#181818;stroke-width:1.0;"/><text fill="#000000" font-family="sans-serif" font-size="13" lengthAdjust="spacing" textLength="8" x="451.1677" y="859.5167">1</text><text fill="#000000" font-family="sans-serif" font-size="13" lengthAdjust="spacing" textLength="23" x="308.9418" y="955.3649">0..*</text></g><!--MD5=[4eb79cc3b9cd3f7a86ca79419eaa3f08]
@startuml
class User {
  +id: int
  +email: string
  +password: string
  +role: Role
  +created_at: time
  +updated_at: time
}

class UserProfile {
  +id: int
  +user: userId
  +name: string
  +surname: string
}

class Role {
  +id: int
  +name: string
}

class Team {
  +id: int
  +name: string
  +coach: userId
  +created_at: time
  +updated_at: time
}

class Player {
  +id: int
  +user: userId
  +team: teamId
  +position: string
  +jersey_number: int
  +points: int
  +assists: int
  +blocks: int
  +aces: int
  +created_at: time
}

class Tournament {
  +id: int
  +name: string
  +category: string
  +start_date: date
  +end_date: date
  +created_at: time
}

class Match {
  +id: int
  +home_team: teamId
  +away_team: teamId
  +tournament: tournamentId
  +date: datetime
  +result: string
  +created_at: time
}

class PlayerMatch {
  +player: playerId
  +match: matchId
  +points: int
  +assists: int
  +blocks: int
  +aces: int
}

class PlayerStatistics {
  +id: int
  +player: playerId
  +matches_played: int
  +points_scored: int
  +assists: int
  +blocks: int
  +aces: int
  +created_at: time
}

class ActionLog {
  +id: int
  +user: userId
  +action_type: string
  +created_at: time
}


User "1" - -> "0..1" UserProfile
User "1" - -> "0..1" Role
User "1" - -> "0..*" ActionLog
User "1" - -> "0..1" Player
User "1" - -> "0..1" Team : coach
Team "1" - -> "0..*" Player
Player "*" - -> "*" Match
Tournament "1" - -> "0..*" Match
Team "1" - -> "0..*" Match : home_team
Team "1" - -> "0..*" Match : away_team
Player "1" - -> "0..1" PlayerStatistics
Player "1" - -> "0..*" PlayerMatch
Match "1" - -> "0..*" PlayerMatch
@enduml

PlantUML version 1.2022.7(Mon Aug 22 17:01:30 UTC 2022)
(GPL source distribution)
Java Runtime: OpenJDK Runtime Environment
JVM: OpenJDK 64-Bit Server VM
Default Encoding: UTF-8
Language: en
Country: null
--></g></svg>